<svg width="46" height="46" viewBox="0 0 46 46" fill="none" xmlns="http://www.w3.org/2000/svg">
<g filter="url(#filter0_d_1_294)">
<rect x="1" y="1" width="44" height="44" rx="12" fill="white" fill-opacity="0.07" shape-rendering="crispEdges"/>
<path opacity="0.4" d="M34.8857 22.2449C34.8857 24.2824 34.8857 25.8966 34.723 27.1724C34.5556 28.4855 34.204 29.5559 33.4167 30.4389C33.183 30.7011 32.9261 30.9428 32.6489 31.1616C31.7231 31.8928 30.6094 32.2163 29.2359 32.3715C27.8902 32.5234 26.1835 32.5234 24.01 32.5234H20.3522C18.1788 32.5234 16.4719 32.5234 15.1263 32.3715C13.7529 32.2163 12.6391 31.8928 11.7133 31.1616C11.4361 30.9428 11.1792 30.701 10.9455 30.4389C10.1582 29.5559 9.80667 28.4855 9.63922 27.1724C9.47654 25.8966 9.47655 24.2823 9.47656 22.2448V22.1202C9.47656 21.4398 9.47655 20.8065 9.48261 20.2173C9.48596 19.8915 9.48764 19.7286 9.59125 19.626C9.69487 19.5234 9.85901 19.5234 10.1873 19.5234H34.1749C34.5032 19.5234 34.6674 19.5234 34.771 19.626C34.8745 19.7286 34.8763 19.8915 34.8796 20.2173C34.8857 20.8064 34.8857 21.4398 34.8857 22.1202V22.2449Z" fill="#94E52F"/>
<path d="M24.0126 11.8418C26.1859 11.8418 27.8927 11.8418 29.2383 11.9938C30.6118 12.1489 31.7256 12.4724 32.6514 13.2036C32.9286 13.4225 33.1855 13.6642 33.4191 13.9263C34.2065 14.8094 34.5581 15.8797 34.7255 17.1929C34.7448 17.344 34.7544 17.4195 34.7371 17.4859C34.7093 17.592 34.628 17.6844 34.5263 17.7253C34.4627 17.7509 34.383 17.7509 34.2237 17.7509H10.1435C9.98423 17.7509 9.90459 17.7509 9.84095 17.7253C9.73923 17.6844 9.65783 17.592 9.63013 17.4859C9.61281 17.4195 9.62244 17.344 9.64171 17.1929C9.80917 15.8797 10.1607 14.8094 10.948 13.9263C11.1817 13.6642 11.4386 13.4225 11.7158 13.2036C12.6416 12.4724 13.7554 12.1489 15.1288 11.9938C16.4744 11.8418 18.1813 11.8418 20.3547 11.8418H24.0126Z" fill="#94E52F"/>
<path fill-rule="evenodd" clip-rule="evenodd" d="M20.1133 26.9098C20.1133 26.4203 20.5101 26.0234 20.9996 26.0234H22.7724C23.2619 26.0234 23.6587 26.4203 23.6587 26.9098C23.6587 27.3993 23.2619 27.7962 22.7724 27.7962H20.9996C20.5101 27.7962 20.1133 27.3993 20.1133 26.9098Z" fill="#94E52F"/>
<path fill-rule="evenodd" clip-rule="evenodd" d="M25.4316 26.9098C25.4316 26.4203 25.8285 26.0234 26.318 26.0234H30.4544C30.9439 26.0234 31.3407 26.4203 31.3407 26.9098C31.3407 27.3993 30.9439 27.7962 30.4544 27.7962H26.318C25.8285 27.7962 25.4316 27.3993 25.4316 26.9098Z" fill="#94E52F"/>
</g>
<defs>
<filter id="filter0_d_1_294" x="0" y="0" width="46" height="46" filterUnits="userSpaceOnUse" color-interpolation-filters="sRGB">
<feFlood flood-opacity="0" result="BackgroundImageFix"/>
<feColorMatrix in="SourceAlpha" type="matrix" values="0 0 0 0 0 0 0 0 0 0 0 0 0 0 0 0 0 0 127 0" result="hardAlpha"/>
<feMorphology radius="1" operator="dilate" in="SourceAlpha" result="effect1_dropShadow_1_294"/>
<feOffset/>
<feComposite in2="hardAlpha" operator="out"/>
<feColorMatrix type="matrix" values="0 0 0 0 0.176471 0 0 0 0 0.180392 0 0 0 0 0.282353 0 0 0 1 0"/>
<feBlend mode="normal" in2="BackgroundImageFix" result="effect1_dropShadow_1_294"/>
<feBlend mode="normal" in="SourceGraphic" in2="effect1_dropShadow_1_294" result="shape"/>
</filter>
</defs>
</svg>
