<svg width="196" height="32" viewBox="0 0 196 32" fill="none" xmlns="http://www.w3.org/2000/svg">
<path fill-rule="evenodd" clip-rule="evenodd" d="M16 2.66602H4V11.5549V20.4438H16V29.3327H28V20.4438V11.5549H16V2.66602Z" fill="url(#paint0_linear_1_834)"/>
<path d="M41.776 25V22.024H45.424V12.328H41.776V9.352H52.624V12.328H48.976V22.024H52.624V25H41.776ZM60.2646 25.288C58.7606 25.288 57.5446 24.736 56.6166 23.632C55.7046 22.512 55.2486 20.984 55.2486 19.048C55.2486 17.752 55.4886 16.64 55.9686 15.712C56.4646 14.784 57.1046 14.072 57.8886 13.576C58.6726 13.064 59.4886 12.808 60.3366 12.808C60.9926 12.808 61.5606 12.92 62.0406 13.144C62.5206 13.368 62.9526 13.68 63.3366 14.08H63.4326L63.2646 12.232V8.176H66.7926V25H63.9126L63.6486 23.776H63.5766C63.1446 24.208 62.6326 24.568 62.0406 24.856C61.4646 25.144 60.8726 25.288 60.2646 25.288ZM61.1766 22.408C61.5766 22.408 61.9446 22.328 62.2806 22.168C62.6326 21.992 62.9606 21.704 63.2646 21.304V16.48C62.9446 16.192 62.6166 15.992 62.2806 15.88C61.9606 15.752 61.6246 15.688 61.2726 15.688C60.8406 15.688 60.4406 15.808 60.0726 16.048C59.7046 16.288 59.4086 16.656 59.1846 17.152C58.9766 17.632 58.8726 18.248 58.8726 19C58.8726 20.168 59.0726 21.032 59.4726 21.592C59.8726 22.136 60.4406 22.408 61.1766 22.408ZM76.1612 25.288C74.9292 25.288 73.8092 25.048 72.8012 24.568C71.8092 24.072 71.0172 23.36 70.4252 22.432C69.8492 21.488 69.5612 20.36 69.5612 19.048C69.5612 17.752 69.8572 16.64 70.4492 15.712C71.0412 14.768 71.8092 14.048 72.7532 13.552C73.6972 13.056 74.6972 12.808 75.7532 12.808C76.9852 12.808 78.0172 13.064 78.8492 13.576C79.6812 14.072 80.3052 14.752 80.7213 15.616C81.1533 16.464 81.3693 17.432 81.3693 18.52C81.3693 18.84 81.3453 19.152 81.2972 19.456C81.2653 19.744 81.2333 19.96 81.2012 20.104H72.1772V17.728H78.8252L78.2732 18.4C78.2732 17.44 78.0652 16.72 77.6492 16.24C77.2492 15.744 76.6572 15.496 75.8732 15.496C75.2972 15.496 74.7932 15.624 74.3612 15.88C73.9292 16.136 73.5932 16.528 73.3532 17.056C73.1132 17.584 72.9932 18.248 72.9932 19.048C72.9932 19.864 73.1372 20.536 73.4252 21.064C73.7132 21.576 74.1292 21.96 74.6732 22.216C75.2172 22.472 75.8732 22.6 76.6412 22.6C77.1852 22.6 77.6972 22.528 78.1772 22.384C78.6732 22.24 79.1852 22.032 79.7132 21.76L80.8892 23.896C80.2012 24.328 79.4412 24.672 78.6092 24.928C77.7772 25.168 76.9612 25.288 76.1612 25.288ZM84.0899 25V13.096H86.9699L87.2339 14.68H87.3299C87.8419 14.168 88.4259 13.728 89.0819 13.36C89.7539 12.992 90.5379 12.808 91.4339 12.808C92.7779 12.808 93.7619 13.24 94.3859 14.104C95.0099 14.968 95.3219 16.152 95.3219 17.656V25H91.7939V18.112C91.7939 17.312 91.6579 16.728 91.3859 16.36C91.1299 15.992 90.6819 15.808 90.0419 15.808C89.5619 15.808 89.1379 15.92 88.7699 16.144C88.4179 16.352 88.0339 16.656 87.6179 17.056V25H84.0899ZM105.794 25.288C104.53 25.288 103.522 25.072 102.77 24.64C102.034 24.192 101.498 23.576 101.162 22.792C100.826 22.008 100.658 21.096 100.658 20.056V15.856H97.6825V13.24L100.826 13.096L101.282 9.448H104.186V13.096H109.226V15.856H104.186V20.032C104.186 20.624 104.274 21.104 104.45 21.472C104.626 21.84 104.898 22.112 105.266 22.288C105.634 22.448 106.106 22.528 106.682 22.528C107.146 22.528 107.57 22.488 107.954 22.408C108.338 22.328 108.706 22.224 109.058 22.096L109.682 24.64C109.154 24.8 108.57 24.944 107.93 25.072C107.306 25.216 106.594 25.288 105.794 25.288ZM117.275 25V15.856H112.475V13.096H120.803V25H117.275ZM118.883 11.224C118.211 11.224 117.651 11.032 117.203 10.648C116.755 10.248 116.531 9.728 116.531 9.088C116.531 8.432 116.755 7.904 117.203 7.504C117.651 7.088 118.211 6.88 118.883 6.88C119.571 6.88 120.131 7.088 120.563 7.504C121.011 7.904 121.235 8.432 121.235 9.088C121.235 9.728 121.011 10.248 120.563 10.648C120.131 11.032 119.571 11.224 118.883 11.224ZM134.036 25.288C132.772 25.288 131.764 25.072 131.012 24.64C130.276 24.192 129.74 23.576 129.404 22.792C129.068 22.008 128.9 21.096 128.9 20.056V15.856H125.924V13.24L129.068 13.096L129.524 9.448H132.428V13.096H137.468V15.856H132.428V20.032C132.428 20.624 132.516 21.104 132.692 21.472C132.868 21.84 133.14 22.112 133.508 22.288C133.876 22.448 134.348 22.528 134.924 22.528C135.388 22.528 135.812 22.488 136.196 22.408C136.58 22.328 136.948 22.224 137.3 22.096L137.924 24.64C137.396 24.8 136.812 24.944 136.172 25.072C135.548 25.216 134.836 25.288 134.036 25.288ZM142.276 29.656C141.924 29.656 141.596 29.632 141.292 29.584C140.988 29.536 140.708 29.48 140.452 29.416L141.076 26.728C141.236 26.776 141.396 26.808 141.556 26.824C141.716 26.856 141.868 26.872 142.012 26.872C142.7 26.872 143.236 26.72 143.62 26.416C144.02 26.128 144.316 25.76 144.508 25.312L144.748 24.688L139.588 13.096H143.092L145.084 18.208C145.308 18.768 145.516 19.352 145.708 19.96C145.9 20.552 146.092 21.16 146.284 21.784H146.38C146.54 21.192 146.716 20.592 146.908 19.984C147.1 19.376 147.284 18.784 147.46 18.208L149.212 13.096H152.548L147.844 25.12C147.476 26.112 147.044 26.944 146.548 27.616C146.068 28.288 145.484 28.792 144.796 29.128C144.124 29.48 143.284 29.656 142.276 29.656ZM154.501 25V9.352H158.029V15.4H162.301V9.352H165.829V25H162.301V18.472H158.029V25H154.501ZM172.438 25.288C171.078 25.288 170.094 24.856 169.486 23.992C168.878 23.128 168.574 21.944 168.574 20.44V13.096H172.102V19.984C172.102 20.784 172.222 21.368 172.462 21.736C172.718 22.104 173.174 22.288 173.83 22.288C174.278 22.288 174.678 22.192 175.03 22C175.382 21.808 175.758 21.448 176.158 20.92V13.096H179.686V25H176.806L176.542 23.296H176.446C175.918 23.888 175.334 24.368 174.694 24.736C174.054 25.104 173.302 25.288 172.438 25.288ZM189.318 25.288C188.774 25.288 188.214 25.152 187.638 24.88C187.078 24.608 186.558 24.216 186.078 23.704H185.982L185.694 25H182.934V8.176H186.462V12.304L186.342 14.176H186.414C186.878 13.744 187.39 13.408 187.95 13.168C188.526 12.928 189.102 12.808 189.678 12.808C190.686 12.808 191.542 13.056 192.246 13.552C192.966 14.048 193.518 14.752 193.902 15.664C194.286 16.56 194.478 17.616 194.478 18.832C194.478 20.192 194.23 21.36 193.734 22.336C193.254 23.296 192.622 24.032 191.838 24.544C191.054 25.04 190.214 25.288 189.318 25.288ZM188.526 22.408C188.958 22.408 189.35 22.288 189.702 22.048C190.054 21.808 190.334 21.432 190.542 20.92C190.75 20.392 190.854 19.72 190.854 18.904C190.854 18.184 190.774 17.592 190.614 17.128C190.454 16.648 190.214 16.288 189.894 16.048C189.59 15.808 189.182 15.688 188.67 15.688C188.286 15.688 187.91 15.776 187.542 15.952C187.19 16.112 186.83 16.392 186.462 16.792V21.616C186.798 21.888 187.142 22.088 187.494 22.216C187.862 22.344 188.206 22.408 188.526 22.408Z" fill="#CAD1E9"/>
<defs>
<linearGradient id="paint0_linear_1_834" x1="16" y1="2.66602" x2="16" y2="29.3327" gradientUnits="userSpaceOnUse">
<stop stop-color="#B67EFD"/>
<stop offset="0.97" stop-color="#FFAC8E"/>
<stop offset="1" stop-color="#CAD1E9" stop-opacity="0"/>
</linearGradient>
</defs>
</svg>
