<svg width="46" height="46" viewBox="0 0 46 46" fill="none" xmlns="http://www.w3.org/2000/svg">
<g filter="url(#filter0_d_1_273)">
<rect x="1" y="1" width="44" height="44" rx="12" fill="white" fill-opacity="0.07" shape-rendering="crispEdges"/>
<path opacity="0.4" d="M22.5004 22.8027C23.8964 22.8027 25.1958 23.4668 26.7408 24.5193L34.636 29.8979C34.9619 30.12 35.1068 30.5275 34.9943 30.9055C34.7443 31.7456 34.3461 32.4561 33.7165 33.0812C32.8618 33.9298 31.8512 34.3401 30.6089 34.554C29.4212 34.7585 27.9391 34.7951 26.0958 34.8406L26.026 34.8423C23.6687 34.9007 21.3321 34.9007 18.9747 34.8423L18.9051 34.8406C17.0618 34.7951 15.5796 34.7585 14.392 34.554C13.1496 34.3401 12.139 33.9298 11.2843 33.0812C10.6546 32.4561 10.2565 31.7456 10.0065 30.9055C9.89396 30.5275 10.0389 30.12 10.3648 29.8979L18.2601 24.5193C19.805 23.4668 21.1045 22.8027 22.5004 22.8027Z" fill="#4770FF"/>
<g opacity="0.4">
<path d="M10.1372 18.7413C9.83666 18.8853 9.63939 19.1825 9.6235 19.5154L9.59302 20.1536C9.51233 21.9871 9.49168 23.7851 9.53116 25.6009L9.5341 25.7364C9.55382 26.6461 9.57165 27.4693 9.6142 28.2151L17.0355 23.1592C16.7474 22.9672 16.4435 22.7462 16.1056 22.5L11.0623 18.8261C10.793 18.6299 10.4377 18.5973 10.1372 18.7413Z" fill="#4770FF"/>
<path d="M34.8652 18.7413C35.1657 18.8853 35.363 19.1825 35.379 19.5154L35.4094 20.1536C35.4901 21.9871 35.5107 23.7851 35.4713 25.6009L35.4683 25.7364C35.4486 26.6461 35.4308 27.4694 35.3883 28.2152L27.9668 23.1593C28.2549 22.9672 28.5589 22.7462 28.8969 22.5L33.9401 18.8261C34.2094 18.6299 34.5647 18.5973 34.8652 18.7413Z" fill="#4770FF"/>
</g>
<path d="M19.8453 10.8498C20.7469 10.3889 21.579 10.1152 22.5006 10.1152C23.4221 10.1152 24.2543 10.3889 25.1559 10.8498C26.028 11.2955 27.0321 11.953 28.2891 12.7762L33.0225 15.8755C33.538 16.2121 33.9893 16.5069 34.3527 16.8443C33.8281 16.8675 33.3119 17.0425 32.8722 17.3629L27.8289 21.0368C27.4845 21.2876 27.2118 21.4855 26.9606 21.653C26.7487 21.7943 26.5724 21.9761 26.4392 22.1844C25.2335 21.4941 23.9438 20.9902 22.5011 20.9902C21.058 20.9902 19.7679 21.4945 18.5619 22.185C18.4286 21.9764 18.2521 21.7944 18.04 21.6529C17.7889 21.4855 17.5161 21.2876 17.1718 21.0368L12.1285 17.3629C11.6889 17.0426 11.1728 16.8676 10.6484 16.8443C11.0119 16.5069 11.4632 16.2121 11.9787 15.8755L16.712 12.7762C17.9691 11.953 18.9732 11.2955 19.8453 10.8498Z" fill="#4770FF"/>
</g>
<defs>
<filter id="filter0_d_1_273" x="0" y="0" width="46" height="46" filterUnits="userSpaceOnUse" color-interpolation-filters="sRGB">
<feFlood flood-opacity="0" result="BackgroundImageFix"/>
<feColorMatrix in="SourceAlpha" type="matrix" values="0 0 0 0 0 0 0 0 0 0 0 0 0 0 0 0 0 0 127 0" result="hardAlpha"/>
<feMorphology radius="1" operator="dilate" in="SourceAlpha" result="effect1_dropShadow_1_273"/>
<feOffset/>
<feComposite in2="hardAlpha" operator="out"/>
<feColorMatrix type="matrix" values="0 0 0 0 0.176471 0 0 0 0 0.180392 0 0 0 0 0.282353 0 0 0 1 0"/>
<feBlend mode="normal" in2="BackgroundImageFix" result="effect1_dropShadow_1_273"/>
<feBlend mode="normal" in="SourceGraphic" in2="effect1_dropShadow_1_273" result="shape"/>
</filter>
</defs>
</svg>
