<svg width="385" height="413" viewBox="0 0 385 413" fill="none" xmlns="http://www.w3.org/2000/svg">
<path d="M288.388 66.6007C293.165 69.3591 297.021 76.0456 297.006 81.5355L296.94 104.588C296.933 106.99 296.187 108.766 294.949 109.773C294.012 110.535 292.278 112.552 290.886 112.371C289.913 112.244 289.371 110.178 288.266 109.54L260.901 93.7404C259.103 92.7025 257.366 92.4484 256.013 93.0274L249.601 95.7745C249.383 95.8693 249.127 95.8206 248.876 95.676C248.305 95.346 247.761 94.516 247.763 93.7558L247.785 86.0875C243.506 83.0211 240.188 76.9189 240.202 71.8309L240.268 48.7779C240.271 47.6502 239.012 46.2192 239.601 45.5521C240.579 44.4459 241.827 43.8262 242.688 43.2914C244.269 42.3092 246.492 42.4119 248.949 43.8309L288.388 66.6007Z" fill="black" stroke="black" stroke-width="1.00072" stroke-miterlimit="10"/>
<path d="M285.905 68.4035C290.682 71.1619 294.538 77.8483 294.522 83.3382L294.457 106.391C294.441 111.881 290.561 114.101 285.783 111.342L258.418 95.5432C256.62 94.5052 254.883 94.2511 253.529 94.8302L247.118 97.5772C246.899 97.672 246.644 97.6233 246.393 97.4787C245.822 97.1487 245.278 96.3187 245.28 95.5585L245.302 87.8902C241.023 84.8238 237.705 78.7217 237.719 73.6336L237.785 50.5807C237.8 45.0908 241.688 42.8753 246.466 45.6336L285.905 68.4035Z" fill="url(#paint0_linear_6_192)" stroke="black" stroke-width="1.00072" stroke-miterlimit="10"/>
<path d="M283.562 80.3614C284.461 80.8806 285.193 82.1399 285.19 83.1807C285.187 84.2143 284.451 84.6336 283.551 84.1144L247.695 63.4124C246.789 62.8894 246.064 61.6266 246.067 60.5931C246.07 59.5522 246.799 59.1364 247.705 59.6594L283.562 80.3614Z" fill="white"/>
<path d="M283.562 92.1951C284.461 92.7143 285.193 93.9809 285.19 95.0144C285.187 96.0553 284.451 96.4673 283.551 95.9481L247.695 75.2461C246.789 74.723 246.064 73.4676 246.067 72.4267C246.07 71.3932 246.799 70.9701 247.705 71.4931L283.562 92.1951Z" fill="white"/>
<path d="M364.844 337.116L324.396 313.763L323.476 313.941L323.054 313.698L322.681 312.772L318.054 310.102L256.662 343.431C256.263 341.874 253.31 343.553 252.019 342.808C250.386 341.865 248.789 342.954 248.784 344.831C248.779 346.583 249.931 348.673 251.412 349.713C251.453 349.75 251.491 349.787 251.55 349.821C251.589 349.845 251.643 349.877 251.691 349.906C251.704 349.914 251.716 349.925 251.729 349.932C251.739 349.938 251.747 349.94 251.757 349.945C251.873 350.014 252 350.087 252.14 350.147L255.264 351.951L255.87 351.838L256.464 352.182L256.84 352.86L297.428 376.294C300.107 377.841 304.442 377.841 307.103 376.294L364.876 342.72C367.537 341.173 367.523 338.663 364.844 337.116Z" fill="#AC6AFF" stroke="black" stroke-width="1.00072" stroke-miterlimit="10"/>
<path d="M363.856 334.649L322.491 312.242L321.594 312.416L321.184 312.179L320.82 311.277L316.314 308.676C316.314 308.676 269.61 331.752 254.306 341.124C253.789 341.44 253.427 341.807 253.162 342.196C252.261 341.946 251.592 342.492 251.588 343.612C251.585 344.943 252.518 346.56 253.676 347.229C253.802 347.301 253.923 347.353 254.042 347.397L297.606 372.549C300.215 374.056 304.438 374.056 307.03 372.549L361.921 340.448C363.297 339.649 363.938 338.585 363.848 337.537C363.767 336.61 363.856 334.649 363.856 334.649Z" fill="white" stroke="black" stroke-width="1.00072" stroke-miterlimit="10"/>
<path d="M364.76 330.151L324.311 306.798L323.391 306.976L322.969 306.733L322.596 305.808L317.97 303.137L249.879 342.707C250.326 342.451 250.786 342.465 251.465 342.857C251.614 342.943 251.826 343.083 252.055 343.182L255.179 344.986L255.443 345.848L256.037 346.191L256.755 345.895L297.343 369.329C300.022 370.876 304.357 370.876 307.019 369.329L364.791 335.755C367.452 334.209 367.439 331.698 364.76 330.151Z" fill="#615D87" stroke="black" stroke-width="1.00072" stroke-miterlimit="10"/>
<path d="M256.76 345.89L324.317 306.793" stroke="black" stroke-width="1.00072" stroke-miterlimit="10"/>
<path d="M345.185 332.87C346.074 333.384 346.079 334.214 345.195 334.728C344.318 335.238 342.884 335.238 341.995 334.724L318.163 320.965C317.275 320.452 317.27 319.622 318.148 319.112C319.031 318.598 320.465 318.598 321.354 319.112L345.185 332.87Z" fill="white"/>
<path d="M338.081 337.117C338.97 337.63 338.974 338.461 338.091 338.974C337.213 339.484 335.78 339.484 334.89 338.971L311.059 325.212C310.17 324.699 310.166 323.868 311.043 323.358C311.927 322.845 313.36 322.845 314.249 323.358L338.081 337.117Z" fill="white"/>
<path d="M330.38 341.062C331.269 341.575 331.274 342.406 330.39 342.919C329.513 343.429 328.079 343.429 327.19 342.916L303.359 329.157C302.469 328.644 302.465 327.813 303.342 327.303C304.226 326.79 305.66 326.79 306.549 327.303L330.38 341.062Z" fill="white"/>
<path d="M17.7075 243.104C17.6987 240.035 19.7748 236.224 22.3355 234.608C22.4324 234.546 22.5278 234.489 22.6212 234.435C24.7033 233.233 25.9403 233.803 26.0752 233.926C26.2952 233.986 26.4557 233.965 26.5721 233.898C26.9463 233.682 26.8726 233.024 26.8687 232.989L26.7084 226.26L27.8132 225.316L26.1847 224.121C26.1572 224.102 26.133 224.078 26.1035 224.062L26.0986 224.058L26.0971 224.06C25.7493 223.873 25.2776 223.904 24.757 224.205L2.8333 236.862C1.77319 237.474 0.918956 238.96 0.922373 240.172L0.993844 265.37C0.994574 265.643 1.04238 265.874 1.12361 266.067C1.15093 266.131 1.32705 266.333 1.32705 266.333L3.33335 267.89L3.9783 265.782L9.63327 262.134C9.78401 262.047 10.0074 261.93 10.0126 261.927C10.0504 261.904 10.0877 261.882 10.1243 261.861C11.8481 260.865 12.2357 262.177 12.2562 262.246C12.2745 262.29 12.6231 263.123 11.6135 264.908C11.5696 264.972 11.532 265.042 11.4908 265.106L10.4885 264.373L10.4834 264.376C10.3846 264.283 10.1614 264.383 10.0194 264.465C9.9472 264.506 9.89963 264.54 9.8972 264.542L3.12309 268.644C2.06322 269.256 1.20874 270.736 1.2124 271.954L1.28363 297.146C1.28534 297.699 1.46975 298.094 1.76319 298.313L1.7627 298.324L3.67388 299.693L4.43688 297.538L25.131 285.59C26.1908 284.978 27.0453 283.492 27.0416 282.275L26.625 274.784C26.6248 274.616 26.6394 274.351 26.6394 274.345C26.566 272.294 27.9615 271.023 28.0349 270.956C28.043 270.948 28.1964 270.792 28.4596 270.64C28.8318 270.425 29.408 270.234 30.0215 270.562C30.1259 270.652 30.2405 270.729 30.3708 270.797C30.9596 271.103 31.7402 271.053 32.5973 270.558C34.1494 269.662 35.4398 267.611 35.8094 265.631L36.8717 263.609L35.404 262.645C34.809 261.835 33.7643 261.669 32.5742 262.356C31.717 262.851 30.9389 263.701 30.3432 264.708C30.2242 264.909 30.1102 265.112 30.0068 265.327C29.4009 266.355 28.8284 266.828 28.4562 267.043C28.1886 267.197 28.0325 267.218 28.0242 267.219C27.9656 267.25 26.8497 267.831 26.6313 265.966C26.6313 265.96 26.6035 265.384 26.5982 265.244L26.8358 260.035L28.354 257.28L26.4128 255.854C26.064 255.65 25.5815 255.678 25.047 255.986L18.0888 259.81C17.8795 259.93 17.2989 260.336 17.8641 260.857C18.0412 260.922 19.2399 261.54 19.1594 264.414C19.0742 267.411 16.7796 271.128 14.1142 272.667C12.5567 273.566 11.1354 273.566 10.1936 272.842L9.27884 267.89C9.27884 267.89 9.27884 267.89 9.27884 267.89L10.6651 266.809C10.4548 267.42 10.3265 268.032 10.328 268.604C10.3302 269.322 10.5265 269.873 10.8463 270.263L10.8351 270.273L10.8751 270.304C11.0366 270.49 11.2251 270.637 11.4449 270.735L12.9826 271.9L13.4732 270.585C13.6176 270.521 13.7593 270.467 13.9081 270.382C15.8822 269.242 17.4724 266.608 17.4663 264.482C17.4636 263.503 17.1128 262.809 16.5393 262.446C16.4247 262.375 16.2998 262.322 16.1695 262.277C15.1531 261.662 15.4907 260.433 15.5085 260.369C15.5114 260.3 15.5668 258.99 17.2911 257.743C17.3014 257.737 17.8158 257.416 17.9402 257.338L24.8412 253.809C25.901 253.197 26.7604 251.714 26.757 250.496L26.845 245.408L28.354 243.311L26.8882 242.243C26.8667 242.083 26.8014 241.923 26.6045 242.037C26.4882 242.104 26.3257 242.271 26.0998 242.6C26.0803 242.64 26.0354 242.722 25.9764 242.823L24.5245 244.641C24.0203 245.136 23.3986 245.647 22.6256 246.094C22.5417 246.142 22.456 246.19 22.3687 246.237C19.807 247.608 17.7163 246.166 17.7075 243.104Z" fill="black"/>
<path d="M9.27884 267.89L10.1936 272.842C11.1354 273.566 12.5567 273.566 14.1142 272.667C16.7796 271.128 19.0742 267.411 19.1594 264.414C19.2399 261.54 18.0412 260.922 17.8641 260.857C17.2989 260.336 17.8795 259.93 18.0888 259.81L25.047 255.986C25.5815 255.678 26.064 255.65 26.4128 255.854L28.354 257.28L26.8358 260.035L26.5982 265.244C26.6035 265.384 26.6313 265.96 26.6313 265.966C26.8497 267.831 27.9656 267.25 28.0242 267.219C28.0325 267.218 28.1886 267.197 28.4562 267.043C28.8284 266.828 29.4009 266.355 30.0068 265.327C30.1102 265.112 30.2242 264.909 30.3432 264.708C30.9389 263.701 31.717 262.851 32.5742 262.356C33.7643 261.669 34.809 261.835 35.404 262.645L36.8717 263.609L35.8094 265.631C35.4398 267.611 34.1494 269.662 32.5973 270.558C31.7402 271.053 30.9596 271.103 30.3708 270.797C30.2405 270.729 30.1259 270.652 30.0215 270.562C29.408 270.234 28.8318 270.425 28.4596 270.64C28.1964 270.792 28.043 270.948 28.0349 270.956C27.9615 271.023 26.566 272.294 26.6394 274.345C26.6394 274.351 26.6248 274.616 26.625 274.784L27.0416 282.275C27.0453 283.492 26.1908 284.978 25.131 285.59L4.43688 297.538L3.67388 299.693L1.7627 298.324L1.76319 298.313C1.46975 298.094 1.28534 297.699 1.28363 297.146L1.2124 271.954C1.20874 270.736 2.06322 269.256 3.12309 268.644L9.8972 264.542C9.89963 264.54 9.9472 264.506 10.0194 264.465C10.1614 264.383 10.3846 264.283 10.4834 264.376L10.4885 264.373L11.4908 265.106C11.532 265.042 11.5696 264.972 11.6135 264.908C12.6231 263.123 12.2745 262.29 12.2562 262.246C12.2357 262.177 11.8481 260.865 10.1243 261.861C10.0877 261.882 10.0504 261.904 10.0126 261.927C10.0074 261.93 9.78401 262.047 9.63327 262.134L3.9783 265.782L3.33335 267.89L1.32705 266.333C1.32705 266.333 1.15093 266.131 1.12361 266.067C1.04238 265.874 0.994574 265.643 0.993844 265.37L0.922373 240.172C0.918956 238.96 1.77319 237.474 2.8333 236.862L24.757 224.205C25.2776 223.904 25.7493 223.873 26.0971 224.06L26.0986 224.058L26.1035 224.062C26.133 224.078 26.1572 224.102 26.1847 224.121L27.8132 225.316L26.7084 226.26L26.8687 232.989C26.8726 233.024 26.9463 233.682 26.5721 233.898C26.4557 233.965 26.2952 233.986 26.0752 233.926C25.9403 233.803 24.7033 233.233 22.6212 234.435C22.5278 234.489 22.4324 234.546 22.3355 234.608C19.7748 236.224 17.6987 240.035 17.7075 243.104C17.7163 246.166 19.807 247.608 22.3687 246.237C22.456 246.19 22.5417 246.142 22.6256 246.094C23.3986 245.647 24.0203 245.136 24.5245 244.641L25.9764 242.823C26.0354 242.722 26.0803 242.64 26.0998 242.6C26.3257 242.271 26.4882 242.104 26.6045 242.037C26.8014 241.923 26.8667 242.083 26.8882 242.243L28.354 243.311L26.845 245.408L26.757 250.496C26.7604 251.714 25.901 253.197 24.8412 253.809L17.9402 257.338C17.8158 257.416 17.3014 257.737 17.2911 257.743C15.5668 258.99 15.5114 260.3 15.5085 260.369C15.4907 260.433 15.1531 261.662 16.1695 262.277C16.2998 262.322 16.4247 262.375 16.5393 262.446C17.1128 262.809 17.4636 263.503 17.4663 264.482C17.4724 266.608 15.8822 269.242 13.9081 270.382C13.7593 270.467 13.6176 270.521 13.4732 270.585L12.9826 271.9L11.4449 270.735C11.2251 270.637 11.0366 270.49 10.8751 270.304L10.8351 270.273L10.8463 270.263C10.5265 269.873 10.3302 269.322 10.328 268.604C10.3265 268.032 10.4548 267.42 10.6651 266.809L9.27884 267.89ZM9.27884 267.89C9.27884 267.89 9.27884 267.89 9.27884 267.89Z" stroke="black" stroke-width="1.00072" stroke-miterlimit="10"/>
<path d="M46.365 237.92C46.1645 239.948 45.2876 241.583 45.1344 241.813C44.8658 242.384 44.8731 242.61 44.981 242.674C45.0888 242.738 46.7014 243.926 46.7041 243.924L52.3215 238.387C53.3811 237.775 54.2407 236.292 54.2373 235.074L54.1719 211.97L55.1744 209.794L53.5391 208.619C53.5391 208.619 53.0781 208.258 52.2375 208.783L30.3133 221.441C29.2535 222.053 28.3992 223.539 28.4027 224.756L28.8193 232.247C28.82 232.415 28.8059 232.673 28.8049 232.686C28.8786 234.737 27.483 236.008 27.4096 236.075C27.4016 236.083 27.2484 236.239 26.985 236.391C26.6127 236.606 26.0366 236.797 25.4228 236.469C25.3184 236.379 25.2038 236.302 25.0787 236.231C24.4847 235.928 23.7041 235.978 22.8472 236.473C21.0029 237.538 19.5117 240.234 19.5181 242.503C19.5213 243.644 19.9054 244.456 20.5211 244.845L22.3747 246.234L23.4556 244.324L23.359 244.336C24.021 243.832 24.6218 243.134 25.1011 242.323C25.2204 242.123 25.3343 241.919 25.4377 241.71C26.0451 240.676 26.6183 240.202 26.9908 239.987C27.2567 239.834 27.4121 239.813 27.4201 239.812C27.4789 239.781 28.5946 239.2 28.8183 241.062C28.8186 241.068 28.8407 241.647 28.8464 241.787L28.4741 249.949C28.4756 250.489 28.6522 250.875 28.9334 251.097L28.93 251.108L30.6314 252.34L32.2067 250.557L31.6342 250.365L37.3558 247.222C37.5648 247.101 38.1456 246.695 37.5804 246.174C37.4033 246.109 36.2047 245.497 36.2849 242.617C36.3701 239.62 38.6649 235.903 41.3301 234.364C44.0004 232.823 46.2774 233.906 46.4055 236.774C46.4231 237.162 46.4026 237.538 46.3669 237.906L46.365 237.92Z" fill="black" stroke="black" stroke-width="1.00072" stroke-miterlimit="10"/>
<path d="M26.5109 225.47C27.5708 224.858 28.436 225.351 28.4394 226.563L28.6226 234.255C28.6265 234.289 28.7002 234.947 28.326 235.163C28.2094 235.23 28.0491 235.251 27.8291 235.191C27.6942 235.069 26.4573 234.498 24.3751 235.7C24.2817 235.754 24.1863 235.812 24.0895 235.873C21.5287 237.489 19.4526 241.301 19.4614 244.369C19.4699 247.432 21.5609 248.874 24.1226 247.502C24.21 247.455 24.2956 247.408 24.3795 247.359C26.6592 246.043 27.7189 244.145 27.8537 243.865C28.0796 243.537 28.2421 243.37 28.3587 243.302C28.6968 243.107 28.6519 243.72 28.6494 243.752L28.5109 251.761C28.5143 252.979 27.6547 254.462 26.5951 255.074L19.6944 258.604C19.5697 258.682 19.0553 259.002 19.045 259.008C17.3209 260.255 17.2653 261.565 17.2624 261.634C17.2446 261.699 16.907 262.928 17.9235 263.543C18.0535 263.587 18.1786 263.64 18.2932 263.712C18.8667 264.074 19.2175 264.769 19.2202 265.748C19.2263 267.873 17.6361 270.507 15.662 271.647C13.693 272.784 12.088 271.994 12.0819 269.869C12.0792 268.89 12.4248 267.794 12.989 266.786C13.1134 266.565 13.2325 266.371 13.3671 266.173C14.377 264.388 14.0284 263.556 14.0101 263.512C13.9896 263.443 13.6023 262.131 11.8782 263.126C11.8416 263.147 11.8043 263.169 11.7665 263.193C11.7611 263.196 11.5379 263.313 11.3872 263.4L4.67112 267.732C3.61101 268.344 2.75117 267.854 2.74775 266.636L2.67628 241.437C2.67286 240.226 3.5271 238.74 4.58696 238.128L26.5109 225.47Z" fill="#615D87" stroke="black" stroke-width="1.00072" stroke-miterlimit="10"/>
<path d="M11.7684 265.736C12.0346 265.582 12.6005 265.345 12.0592 266.489C11.8831 266.759 10.6717 269.001 10.7881 271.529C10.9213 274.4 13.1983 275.477 15.8635 273.938C18.5286 272.399 20.8233 268.683 20.9084 265.686C20.9889 262.811 19.7902 262.193 19.6131 262.128C19.048 261.607 19.6285 261.202 19.8378 261.081L26.7961 257.258C27.8559 256.646 28.7158 257.136 28.7194 258.354L28.347 266.515C28.3526 266.656 28.3804 267.232 28.3804 267.238C28.5989 269.103 29.7147 268.521 29.7732 268.49C29.7815 268.489 29.9376 268.469 30.205 268.314C30.5774 268.099 31.1499 267.627 31.7559 266.598C31.8593 266.383 31.9732 266.18 32.0922 265.98C32.6877 264.972 33.466 264.122 34.3232 263.627C36.1675 262.562 37.6689 263.537 37.6753 265.8C37.6818 268.068 36.1907 270.765 34.3464 271.83C33.4892 272.324 32.7089 272.374 32.1198 272.069C31.9895 272 31.8749 271.923 31.7707 271.834C31.157 271.505 30.5809 271.696 30.2086 271.911C29.9452 272.063 29.792 272.219 29.784 272.227C29.7105 272.294 28.315 273.566 28.3884 275.616C28.3884 275.622 28.3736 275.888 28.374 276.055L28.7907 283.546C28.7941 284.764 27.9399 286.25 26.88 286.862L4.95603 299.519C3.89617 300.131 3.03631 299.635 3.03291 298.417L2.96144 273.225C2.95802 272.007 3.81226 270.527 4.87212 269.915L11.6462 265.813C11.6487 265.811 11.6962 265.778 11.7684 265.736Z" fill="#615D87" stroke="black" stroke-width="1.00072" stroke-miterlimit="10"/>
<path d="M53.9836 210.056C55.0435 209.444 55.9085 209.937 55.9121 211.155L55.9834 236.347C55.9868 237.565 55.1274 239.048 54.0676 239.66L47.2986 243.759C47.2961 243.761 47.2486 243.795 47.1764 243.836C46.91 243.99 46.3433 244.229 46.8805 243.086C47.0617 242.814 48.2679 240.581 48.1513 238.047C48.0235 235.179 45.7465 234.096 43.0762 235.637C40.411 237.176 38.1164 240.893 38.031 243.89C37.9508 246.771 39.1494 247.382 39.3265 247.447C39.8917 247.968 39.3109 248.374 39.1019 248.495L32.1433 252.318C31.0837 252.93 30.2236 252.44 30.2202 251.222L30.5925 243.06C30.5868 242.92 30.5644 242.341 30.5644 242.335C30.3407 240.473 29.225 241.054 29.1662 241.085C29.1582 241.086 29.0028 241.107 28.7369 241.26C28.3644 241.475 27.7912 241.949 27.1838 242.983C27.0804 243.192 26.9665 243.396 26.8474 243.596C26.2518 244.603 25.4736 245.453 24.6165 245.948C22.7721 247.013 21.2705 246.038 21.2642 243.776C21.2578 241.507 22.749 238.811 24.5933 237.746C25.4505 237.251 26.2308 237.201 26.8248 237.504C26.9499 237.575 27.0648 237.652 27.1689 237.742C27.7827 238.07 28.3588 237.879 28.731 237.664C28.9945 237.512 29.1477 237.356 29.1557 237.348C29.2291 237.281 30.6246 236.01 30.5512 233.959C30.552 233.946 30.5659 233.688 30.5654 233.52L30.1488 226.029C30.1453 224.812 30.9998 223.326 32.0594 222.714L53.9836 210.056Z" fill="#615D87" stroke="black" stroke-width="1.00072" stroke-miterlimit="10"/>
<path d="M53.9197 244.181C53.9197 244.181 51.225 250.36 52.9423 249.369C52.9818 249.346 53.022 249.322 53.0625 249.297C53.0679 249.294 53.2913 249.183 53.4367 249.099L60.153 244.767C60.9372 244.221 61.4517 244.599 61.4517 244.599L62.9918 245.801L62.0883 248.29L62.1527 271.052C62.1564 272.27 61.2968 273.759 60.2369 274.371L40.7932 285.597L38.4876 288.263L37.006 287.188L37.0109 287.185C36.6325 286.999 36.3916 286.565 36.3896 285.927L36.2013 278.244C36.1976 278.209 36.1266 277.55 36.5023 277.333C36.6194 277.266 36.7801 277.244 37.0001 277.305C37.1348 277.427 38.372 277.998 40.4539 276.795C40.5473 276.741 40.6427 276.684 40.7396 276.623C43.3003 275.006 45.3712 271.198 45.3625 268.129C45.3537 265.067 43.2683 263.622 40.7066 264.994C40.6193 265.04 40.5337 265.088 40.4495 265.137C38.8294 266.072 38.6452 268.702 38.4796 269.962C38.412 270.475 38.0671 270.496 38.0671 270.496C38.0671 270.496 36.9443 269.813 36.5025 269.452C36.2005 269.205 36.172 268.778 36.1744 268.746L36.3184 260.734C36.3147 259.517 37.1692 258.037 38.229 257.425L45.1349 253.892C45.2593 253.814 45.7737 253.493 45.7788 253.49C47.5083 252.241 47.5588 250.928 47.5615 250.859C47.5795 250.794 47.9222 249.568 46.9058 248.953C46.7702 248.912 46.6504 248.849 46.5358 248.778C45.9572 248.424 45.6064 247.73 45.6037 246.745C45.5976 244.626 47.1929 241.983 49.1619 240.846C50.0673 240.323 50.8882 240.218 51.5177 240.452C51.5453 240.462 51.5726 240.473 51.5994 240.485C51.5994 240.485 52.0183 240.722 52.1771 240.899L53.5884 241.881L53.9197 244.181Z" fill="black" stroke="black" stroke-width="1.00072" stroke-miterlimit="10"/>
<path d="M50.9129 242.125C52.8872 240.985 54.4869 241.784 54.493 243.903C54.4957 244.888 54.1554 245.981 53.5909 246.989C53.4668 247.204 53.3424 247.407 53.2129 247.602C52.2032 249.387 52.5467 250.216 52.5647 250.26C52.5852 250.329 52.9763 251.64 54.6933 250.648C54.7325 250.626 54.773 250.602 54.8135 250.576C54.8189 250.573 55.0423 250.462 55.1877 250.378L61.904 246.046C62.9639 245.434 63.8288 245.921 63.8325 247.139L63.9037 272.332C63.9074 273.549 63.0478 275.038 61.9879 275.65L40.0639 288.308C39.0041 288.92 38.144 288.424 38.1406 287.206L37.9523 279.523C37.9486 279.489 37.8776 278.829 38.2533 278.612C38.3704 278.545 38.5309 278.524 38.7509 278.584C38.8858 278.706 40.1227 279.277 42.2049 278.075C42.2986 278.021 42.3937 277.963 42.4905 277.902C45.0515 276.286 47.1222 272.477 47.1134 269.409C47.1047 266.346 45.0191 264.901 42.4576 266.273C42.3703 266.32 42.2846 266.367 42.2005 266.416C39.9208 267.732 38.8611 269.63 38.7265 269.904C38.4977 270.236 38.3338 270.405 38.2164 270.473C37.8786 270.668 37.923 270.058 37.9254 270.025L38.0691 262.014C38.0657 260.796 38.9202 259.316 39.9798 258.704L46.8859 255.171C47.0103 255.093 47.5247 254.773 47.5298 254.77C49.2593 253.52 49.3098 252.207 49.3125 252.138C49.3305 252.073 49.6732 250.847 48.6565 250.232C48.5211 250.191 48.4014 250.129 48.2867 250.057C47.7081 249.704 47.3574 249.009 47.3547 248.024C47.3486 245.905 48.9439 243.262 50.9129 242.125Z" fill="#858DFF" stroke="black" stroke-width="1.00072" stroke-miterlimit="10"/>
<path d="M374.823 272.612C386.517 279.363 386.566 290.333 374.947 297.085C363.342 303.829 344.404 303.837 332.71 297.085C321.029 290.341 320.967 279.364 332.572 272.62C344.191 265.868 363.142 265.868 374.823 272.612Z" fill="#615D87" stroke="black" stroke-width="1.00072" stroke-miterlimit="10"/>
<path d="M374.823 266.916C386.517 273.668 386.566 284.638 374.947 291.39C363.342 298.134 344.404 298.141 332.71 291.39C321.029 284.646 320.967 273.668 332.572 266.924C344.191 260.172 363.142 260.172 374.823 266.916Z" fill="#FFA6E2" stroke="black" stroke-width="1.00072" stroke-miterlimit="10"/>
<path d="M377.654 223.391H377.673V212.668C377.654 209.121 375.304 205.573 370.627 202.874C361.266 197.469 346.105 197.475 336.814 202.874C332.165 205.576 329.849 209.122 329.866 212.668L329.866 223.391H329.885C330.189 233.393 336.635 241.848 345.58 245.112C336.635 248.376 330.189 256.83 329.885 266.832H329.866V277.556C329.885 281.103 332.235 284.65 336.912 287.35C346.273 292.755 361.434 292.749 370.724 287.35C375.374 284.648 377.689 281.102 377.673 277.556L377.673 266.832H377.654C377.349 256.83 370.903 248.376 361.959 245.112C370.903 241.848 377.349 233.393 377.654 223.391Z" fill="#E839CC" stroke="black" stroke-width="1.00072" stroke-miterlimit="10"/>
<path d="M375.188 276.758C375.188 276.756 375.187 276.753 375.187 276.75L375.198 264.354H332.321L332.355 276.303L332.39 276.304C332.199 279.632 334.278 282.999 338.667 285.534C347.055 290.377 360.638 290.371 368.962 285.534C373.128 283.113 375.202 279.935 375.188 276.758Z" fill="white" stroke="black" stroke-width="1.00072" stroke-miterlimit="10"/>
<path d="M368.868 256.09C377.256 260.933 377.29 268.801 368.957 273.643C360.634 278.48 347.05 278.486 338.663 273.643C330.285 268.806 330.24 260.933 338.564 256.096C346.897 251.253 360.49 251.253 368.868 256.09Z" fill="white" stroke="black" stroke-width="1.00072" stroke-miterlimit="10"/>
<path d="M369.449 228.359C375.24 231.702 370.011 237.107 364.259 240.45C358.513 243.79 349.136 243.793 343.346 240.45C337.563 237.111 332.614 231.698 338.36 228.359C344.112 225.016 363.666 225.02 369.449 228.359Z" fill="white" stroke="black" stroke-width="1.00072" stroke-miterlimit="10"/>
<path d="M366.778 222.955C374.005 227.127 374.034 233.905 366.855 238.078C359.684 242.245 347.982 242.25 340.755 238.078C333.538 233.91 333.499 227.127 340.67 222.96C347.85 218.788 359.56 218.788 366.778 222.955Z" fill="white" stroke="black" stroke-width="1.00072" stroke-miterlimit="10"/>
<path d="M374.823 200.381C386.517 207.133 386.566 218.103 374.947 224.854C363.342 231.598 344.404 231.606 332.71 224.855C321.029 218.111 320.967 207.133 332.572 200.389C344.191 193.637 363.142 193.637 374.823 200.381Z" fill="#AC6AFF" stroke="black" stroke-width="1.00072" stroke-miterlimit="10"/>
<path d="M374.823 194.686C386.517 201.438 386.566 212.407 374.947 219.159C363.342 225.903 344.404 225.911 332.71 219.159C321.029 212.415 320.967 201.438 332.572 194.694C344.191 187.942 363.142 187.942 374.823 194.686Z" fill="#FFA6E2" stroke="black" stroke-width="1.00072" stroke-miterlimit="10"/>
<path d="M368.872 198.145C377.259 202.987 377.294 210.855 368.961 215.698C360.638 220.535 347.054 220.541 338.666 215.698C330.289 210.861 330.244 202.987 338.568 198.15C346.901 193.308 360.494 193.308 368.872 198.145Z" fill="#FFA6E2" stroke="black" stroke-width="1.00072" stroke-miterlimit="10"/>
<path d="M338.565 200.153C346.898 195.31 360.491 195.31 368.869 200.147C372.649 202.329 374.716 205.126 375.102 207.983C375.601 204.463 373.529 200.839 368.869 198.149C360.491 193.311 346.898 193.312 338.565 198.154C333.997 200.809 331.966 204.378 332.433 207.859C332.833 205.046 334.87 202.3 338.565 200.153Z" fill="black"/>
<path d="M353.753 250.935C355.55 250.935 357.006 249.479 357.006 247.682C357.006 245.886 355.55 244.43 353.753 244.43C351.957 244.43 350.5 245.886 350.5 247.682C350.5 249.479 351.957 250.935 353.753 250.935Z" fill="white" stroke="black" stroke-width="1.00072" stroke-miterlimit="10"/>
<path d="M261.592 379.694L259.67 382.737C259.485 383.029 259.169 383.217 258.824 383.21C257.718 383.188 254.852 384.632 254.422 383.917L256.651 382.664L258.701 382.989V373.01L249.338 376.606L250.035 377.312L248.111 377.631C247.601 377.292 247.078 376.96 246.523 376.64C245.968 376.319 245.394 376.017 244.813 375.726L246.435 372.397C243.815 371.244 241.006 370.312 238.077 369.605L233.933 372.088C232.456 371.793 230.948 371.561 229.427 371.388L227.965 368.04C224.759 367.804 221.523 367.808 218.326 368.04L216.895 371.392C215.37 371.561 213.864 371.793 212.391 372.088L208.225 369.602C206.651 369.987 205.117 370.44 203.626 370.951L203.767 370.897L202.99 365.722L199.905 363.895V372.37L200.745 372.05C200.466 372.166 200.18 372.276 199.905 372.397L201.564 375.727C200.981 376.021 200.41 376.323 199.859 376.644C199.307 376.964 198.788 377.296 198.287 377.631L195.563 377.181L195.864 376.606L187.735 373.423V379.736L191.32 382.367C190.809 383.225 189.496 382.348 189.215 383.228L185.03 379.831C184.64 381.683 184.686 391.092 185.104 392.948L187.832 393.343V398.804C189.069 400.495 190.687 402.119 192.686 403.633L198.428 402.682C198.933 403.018 199.456 403.349 200.011 403.669C200.041 403.687 200.074 403.702 200.104 403.72V407.916C202.718 409.065 205.527 409.997 208.456 410.711L212.594 408.225C214.077 408.516 215.579 408.752 217.106 408.921L218.575 412.273C221.774 412.505 225.017 412.505 228.214 412.273L229.645 408.921C231.157 408.752 232.663 408.52 234.143 408.222L238.309 410.707C241.229 410 244.028 409.068 246.635 407.916V403.694C246.648 403.687 246.662 403.68 246.675 403.673C247.226 403.353 247.739 403.017 248.246 402.679L254.006 403.632C255.981 402.122 257.581 400.498 258.798 398.8V393.336L261.468 392.948C261.858 391.095 262.003 381.547 261.592 379.694ZM234.497 396.642C228.337 400.222 218.31 400.226 212.103 396.642C205.896 393.059 205.87 387.251 212.03 383.671C218.197 380.087 228.224 380.084 234.43 383.667C240.637 387.251 240.664 393.059 234.497 396.642Z" fill="#AC6AFF" stroke="black" stroke-width="1.00072" stroke-miterlimit="10" stroke-linejoin="round"/>
<path d="M246.433 363.895L237.618 368.544L246.433 371.797V363.895Z" fill="#AC6AFF" stroke="black" stroke-width="1.00072" stroke-miterlimit="10" stroke-linejoin="round"/>
<path d="M246.679 395.17C246.128 395.49 245.551 395.788 244.974 396.079L246.64 399.412C244.033 400.565 241.234 401.497 238.313 402.204L234.147 399.718C232.667 400.017 231.162 400.249 229.649 400.418L228.218 403.77C225.022 404.002 221.779 404.002 218.579 403.77L217.111 400.418C215.584 400.249 214.082 400.013 212.599 399.722L208.461 402.208C205.532 401.494 202.723 400.562 200.109 399.413L201.731 396.083C201.144 395.789 200.57 395.487 200.015 395.166C199.46 394.846 198.937 394.514 198.433 394.179L192.69 395.129C190.692 393.616 189.074 391.992 187.837 390.301L192.109 387.892C191.602 387.034 191.19 386.165 190.893 385.281L185.108 384.445C184.691 382.589 184.687 380.714 185.077 378.862L190.858 378.022C191.139 377.142 191.535 376.269 192.045 375.411L187.74 373.006C188.957 371.315 190.557 369.691 192.539 368.177L198.292 369.127C198.793 368.792 199.312 368.461 199.863 368.14C200.415 367.82 200.985 367.518 201.568 367.223L199.909 363.894C202.51 362.745 205.309 361.813 208.229 361.098L212.395 363.584C213.869 363.29 215.374 363.058 216.9 362.888L218.33 359.537C221.527 359.305 224.764 359.301 227.97 359.537L229.432 362.885C230.952 363.058 232.461 363.29 233.938 363.584L238.082 361.102C241.011 361.809 243.82 362.741 246.44 363.894L244.818 367.223C245.398 367.514 245.972 367.816 246.527 368.136C247.082 368.457 247.605 368.788 248.116 369.127L253.859 368.177C255.851 369.687 257.469 371.311 258.705 373.009L254.427 375.414C254.941 376.268 255.346 377.141 255.65 378.022L261.441 378.861C261.852 380.714 261.862 382.592 261.472 384.445L255.691 385.284C255.397 386.165 255.001 387.038 254.497 387.892L258.803 390.297C257.585 391.995 255.986 393.619 254.01 395.129L248.251 394.175C247.744 394.514 247.231 394.849 246.679 395.17ZM212.108 388.139C218.315 391.722 228.341 391.719 234.502 388.139C240.668 384.555 240.642 378.747 234.435 375.164C228.228 371.58 218.201 371.584 212.035 375.167C205.874 378.747 205.901 384.555 212.108 388.139Z" fill="#615D87" stroke="black" stroke-width="1.00072" stroke-miterlimit="10" stroke-linejoin="round"/>
<path d="M184.237 0.982882C185.462 0.275739 186.466 0.84832 186.471 2.25571L186.661 69.4504C186.665 70.8578 185.667 72.5795 184.442 73.2866L96.2701 124.193C95.039 124.903 94.0409 124.334 94.0367 122.927L93.8462 55.7324C93.8423 54.325 94.8341 52.5997 96.0652 51.8888L184.237 0.982882Z" fill="black" stroke="black" stroke-width="1.00072" stroke-miterlimit="10"/>
<path d="M186.499 2.21335C187.723 1.50621 188.728 2.0788 188.732 3.48619L188.923 70.6808C188.927 72.0882 187.928 73.8099 186.704 74.5171L98.5318 125.423C97.3007 126.134 96.3023 125.565 96.2984 124.158L96.1079 56.9629C96.104 55.5555 97.0956 53.8302 98.3269 53.1193L186.499 2.21335Z" fill="#615D87" stroke="black" stroke-width="1.00072" stroke-miterlimit="10"/>
<path d="M120.994 84.6968L118.487 83.2216C118.292 83.0814 118.086 82.9608 117.869 82.8583C116.395 82.1603 114.44 82.3353 112.29 83.5764C107.728 86.2106 104.04 92.5977 104.055 97.8405C104.062 100.083 104.748 101.747 105.884 102.718L105.882 102.722L105.897 102.731C106.205 102.992 106.548 103.197 106.918 103.353L109.293 104.802L110.045 103.511C110.776 103.332 111.546 103.025 112.344 102.564C116.907 99.93 120.594 93.5428 120.579 88.3002C120.577 87.4227 120.463 86.6415 120.266 85.9469L120.994 84.6968Z" fill="black" stroke="black" stroke-width="1.00072" stroke-miterlimit="10"/>
<path d="M115.285 85.3479C110.722 87.982 107.034 94.3692 107.049 99.612C107.064 104.855 110.776 106.97 115.339 104.336C119.901 101.701 123.588 95.3143 123.573 90.0717C123.559 84.8289 119.847 82.7138 115.285 85.3479Z" fill="#AC6AFF" stroke="black" stroke-width="1.00072" stroke-miterlimit="10"/>
<path d="M118.265 88.293L119.91 88.5878L115.425 99.0445C115.186 99.593 114.883 99.8837 114.668 100.033C114.635 100.056 114.598 100.08 114.559 100.102C114.353 100.222 114.088 100.304 113.834 100.169L110.688 98.5742L112.033 96.1519L114.381 97.3433L118.265 88.293Z" fill="black" stroke="black" stroke-width="1.00072" stroke-miterlimit="10"/>
<path d="M178.584 55.5065L176.826 54.0167C176.826 54.0167 176.171 53.4266 174.425 54.2921L132.153 78.6983C130.232 79.8069 128.684 82.4805 128.69 84.6869C128.693 85.9487 129.474 86.3992 130.02 87.0282L131.147 88.1649L141.616 81.2139L174.448 62.2584C176.361 61.1539 177.909 58.4721 177.903 56.2738C177.903 56.2095 177.889 56.1578 177.886 56.0957L178.584 55.5065Z" fill="black" stroke="black" stroke-width="1.00072" stroke-miterlimit="10"/>
<path d="M176.167 55.7808C178.08 54.6763 179.639 55.5561 179.645 57.7625C179.651 59.9607 178.103 62.6426 176.19 63.747L133.917 88.1532C131.997 89.2618 130.438 88.3738 130.432 86.1755C130.426 83.9692 131.974 81.2955 133.895 80.1869L176.167 55.7808Z" fill="#AC6AFF" stroke="black" stroke-width="1.00072" stroke-miterlimit="10"/>
<path d="M120.994 58.7144L118.487 57.2392C118.292 57.099 118.086 56.9784 117.869 56.8758C116.395 56.1779 114.44 56.3529 112.29 57.594C107.728 60.2282 104.04 66.6153 104.055 71.8581C104.062 74.1005 104.748 75.7648 105.884 76.736L105.882 76.7392L105.897 76.7483C106.205 77.0094 106.548 77.2148 106.918 77.3711L109.293 78.8198L110.045 77.5286C110.776 77.3499 111.546 77.0427 112.344 76.5817C116.907 73.9476 120.594 67.5604 120.579 62.3178C120.577 61.4403 120.463 60.6591 120.266 59.9644L120.994 58.7144Z" fill="black" stroke="black" stroke-width="1.00072" stroke-miterlimit="10"/>
<path d="M115.285 59.3694C110.722 62.0035 107.034 68.3907 107.049 73.6335C107.064 78.8761 110.776 80.9913 115.339 78.3571C119.901 75.723 123.588 69.3358 123.573 64.0931C123.559 58.8504 119.847 56.7352 115.285 59.3694Z" fill="#AC6AFF" stroke="black" stroke-width="1.00072" stroke-miterlimit="10"/>
<path d="M118.265 62.3262L119.91 62.621L115.425 73.0777C115.186 73.6262 114.883 73.9169 114.668 74.0664C114.635 74.089 114.598 74.1131 114.559 74.1356C114.353 74.2547 114.088 74.3371 113.834 74.2017L110.688 72.6074L112.033 70.1852L114.381 71.3766L118.265 62.3262Z" fill="black" stroke="black" stroke-width="1.00072" stroke-miterlimit="10"/>
<path d="M178.584 29.5319L176.826 28.0421C176.826 28.0421 176.171 27.452 174.425 28.3175L132.153 52.7236C130.232 53.8323 128.684 56.5059 128.69 58.7123C128.693 59.9741 129.474 60.4246 130.02 61.0535L131.147 62.1903L141.616 55.2393L174.448 36.2838C176.361 35.1793 177.909 32.4974 177.903 30.2992C177.903 30.2349 177.889 30.1832 177.886 30.1211L178.584 29.5319Z" fill="black" stroke="black" stroke-width="1.00072" stroke-miterlimit="10"/>
<path d="M176.167 29.8025C178.08 28.698 179.639 29.5778 179.645 31.7842C179.651 33.9824 178.103 36.6643 176.19 37.7688L133.917 62.1749C131.997 63.2836 130.438 62.3955 130.432 60.1973C130.426 57.9909 131.974 55.3173 133.894 54.2086L176.167 29.8025Z" fill="#AC6AFF" stroke="black" stroke-width="1.00072" stroke-miterlimit="10"/>
<defs>
<linearGradient id="paint0_linear_6_192" x1="234.222" y1="46.6426" x2="303.162" y2="122.576" gradientUnits="userSpaceOnUse">
<stop offset="0.0221032" stop-color="#F33CC0"/>
<stop offset="0.709244" stop-color="#4349FF"/>
</linearGradient>
</defs>
</svg>
