<svg width="489" height="360" viewBox="0 0 489 360" fill="none" xmlns="http://www.w3.org/2000/svg">
<g filter="url(#filter0_b_1_467)">
<rect x="93.2207" y="0.344482" width="395.779" height="277.612" rx="12" fill="url(#paint0_linear_1_467)" fill-opacity="0.16"/>
<rect x="93.6254" y="0.749165" width="394.97" height="276.803" rx="11.5953" stroke="url(#paint1_linear_1_467)" stroke-width="0.809365"/>
</g>
<g filter="url(#filter1_b_1_467)">
<rect x="51.1338" y="42.4315" width="395.779" height="277.612" rx="12" fill="url(#paint2_linear_1_467)" fill-opacity="0.16"/>
<rect x="51.5385" y="42.8361" width="394.97" height="276.803" rx="11.5953" stroke="url(#paint3_linear_1_467)" stroke-width="0.809365"/>
<rect x="62.4658" y="151.695" width="225.813" height="18.6154" rx="9.30769" fill="#CAD1E9"/>
<rect x="77.8447" y="67.5213" width="210.435" height="18.6154" rx="9.30769" fill="#CAD1E9"/>
<rect opacity="0.4" x="77.8447" y="181.64" width="280.849" height="18.6154" rx="9.30769" fill="#CAD1E9"/>
<rect opacity="0.4" x="54.3722" y="211.588" width="304.321" height="18.6154" rx="9.30769" fill="#CAD1E9"/>
<path fill-rule="evenodd" clip-rule="evenodd" d="M101.441 298.291C101.888 298.291 102.251 298.653 102.251 299.1V300.314C102.251 300.761 101.888 301.124 101.441 301.124C100.994 301.124 100.632 300.761 100.632 300.314V299.1C100.632 298.653 100.994 298.291 101.441 298.291ZM96.7982 300.147C97.1142 299.831 97.6267 299.831 97.9428 300.147L98.7521 300.956C99.0682 301.272 99.0682 301.785 98.7521 302.101C98.4361 302.417 97.9236 302.417 97.6075 302.101L96.7982 301.291C96.4821 300.975 96.4821 300.463 96.7982 300.147ZM106.036 300.147C106.352 300.463 106.352 300.975 106.036 301.291L105.227 302.101C104.911 302.417 104.398 302.417 104.082 302.101C103.766 301.785 103.766 301.272 104.082 300.956L104.892 300.147C105.208 299.831 105.72 299.831 106.036 300.147ZM94.9424 304.79C94.9424 304.343 95.3047 303.98 95.7517 303.98H96.9658C97.4128 303.98 97.7751 304.343 97.7751 304.79C97.7751 305.237 97.4128 305.599 96.9658 305.599H95.7517C95.3047 305.599 94.9424 305.237 94.9424 304.79ZM98.7521 307.431C99.0682 307.747 99.0682 308.259 98.7521 308.576L97.9428 309.385C97.6267 309.701 97.1142 309.701 96.7982 309.385C96.4821 309.069 96.4821 308.556 96.7982 308.24L97.6075 307.431C97.9236 307.115 98.4361 307.115 98.7521 307.431Z" fill="#CAD1E9"/>
<path d="M112.313 306.938C112.421 307.08 112.548 307.297 112.546 307.569C112.542 308.229 112.092 308.68 111.655 308.966C111.206 309.259 110.63 309.476 110.069 309.643C109.501 309.813 108.905 309.944 108.396 310.049C108.042 310.121 107.413 310.25 107.232 310.301C106.935 310.384 106.874 310.438 106.855 310.459C106.833 310.483 106.78 310.555 106.711 310.872L106.708 310.885C106.382 312.369 106.125 313.535 105.851 314.33C105.714 314.727 105.555 315.086 105.346 315.357C105.126 315.643 104.812 315.875 104.391 315.894C104.114 315.906 103.891 315.779 103.75 315.675C103.6 315.563 103.464 315.418 103.342 315.265C103.096 314.959 102.842 314.54 102.594 314.064C102.093 313.107 101.564 311.827 101.118 310.514C100.672 309.202 100.298 307.828 100.118 306.683C100.028 306.112 99.9826 305.575 100.008 305.119C100.032 304.695 100.122 304.208 100.433 303.873C100.753 303.528 101.241 303.411 101.668 303.37C102.124 303.326 102.662 303.356 103.234 303.431C104.382 303.581 105.762 303.929 107.085 304.354C108.408 304.78 109.7 305.293 110.672 305.787C111.155 306.032 111.58 306.284 111.894 306.53C112.05 306.652 112.198 306.788 112.313 306.938Z" fill="#CAD1E9"/>
</g>
<rect x="25.2341" y="265.007" width="72.8428" height="34.8027" rx="12" fill="#ED5959"/>
<rect x="25.6388" y="265.411" width="72.0334" height="33.9933" rx="11.5953" stroke="white" stroke-opacity="0.17" stroke-width="0.809365"/>
<path d="M46.2391 287.408H43.1902V277.99H46.3357C47.2585 277.99 48.051 278.179 48.7132 278.556C49.3754 278.93 49.8828 279.468 50.2354 280.17C50.591 280.869 50.7688 281.707 50.7688 282.685C50.7688 283.666 50.5895 284.509 50.2308 285.215C49.8751 285.92 49.3601 286.462 48.6856 286.842C48.0111 287.22 47.1957 287.408 46.2391 287.408ZM44.6112 286.166H46.161C46.8783 286.166 47.4746 286.032 47.9498 285.762C48.425 285.489 48.7807 285.095 49.0167 284.58C49.2528 284.062 49.3708 283.43 49.3708 282.685C49.3708 281.946 49.2528 281.319 49.0167 280.804C48.7837 280.289 48.4358 279.898 47.9728 279.632C47.5099 279.365 46.9351 279.232 46.2483 279.232H44.6112V286.166ZM55.0651 287.551C54.3692 287.551 53.7698 287.402 53.267 287.105C52.7673 286.804 52.381 286.383 52.1082 285.84C51.8384 285.294 51.7035 284.655 51.7035 283.922C51.7035 283.199 51.8384 282.561 52.1082 282.009C52.381 281.457 52.7612 281.027 53.2486 280.717C53.7392 280.407 54.3125 280.253 54.9685 280.253C55.3671 280.253 55.7534 280.318 56.1274 280.45C56.5014 280.582 56.8371 280.789 57.1345 281.071C57.4319 281.353 57.6664 281.72 57.8381 282.17C58.0098 282.618 58.0956 283.162 58.0956 283.803V284.29H52.4807V283.26H56.7482C56.7482 282.898 56.6746 282.578 56.5275 282.299C56.3803 282.017 56.1734 281.795 55.9067 281.632C55.643 281.47 55.3334 281.388 54.9777 281.388C54.5915 281.388 54.2542 281.483 53.966 281.674C53.6809 281.861 53.4602 282.106 53.3038 282.409C53.1505 282.71 53.0739 283.036 53.0739 283.389V284.194C53.0739 284.666 53.1567 285.067 53.3222 285.398C53.4908 285.73 53.7254 285.982 54.0258 286.157C54.3263 286.329 54.6773 286.415 55.0789 286.415C55.3395 286.415 55.5771 286.378 55.7917 286.304C56.0063 286.228 56.1918 286.114 56.3481 285.964C56.5045 285.814 56.6241 285.628 56.7068 285.408L58.0083 285.642C57.904 286.025 57.717 286.361 57.4472 286.649C57.1805 286.934 56.8448 287.157 56.4401 287.316C56.0385 287.472 55.5802 287.551 55.0651 287.551ZM60.5916 277.99V287.408H59.2166V277.99H60.5916ZM65.081 287.551C64.3851 287.551 63.7857 287.402 63.2829 287.105C62.7832 286.804 62.3969 286.383 62.1241 285.84C61.8543 285.294 61.7194 284.655 61.7194 283.922C61.7194 283.199 61.8543 282.561 62.1241 282.009C62.3969 281.457 62.7771 281.027 63.2645 280.717C63.7551 280.407 64.3284 280.253 64.9844 280.253C65.383 280.253 65.7693 280.318 66.1433 280.45C66.5173 280.582 66.853 280.789 67.1504 281.071C67.4478 281.353 67.6823 281.72 67.854 282.17C68.0257 282.618 68.1115 283.162 68.1115 283.803V284.29H62.4965V283.26H66.7641C66.7641 282.898 66.6905 282.578 66.5434 282.299C66.3962 282.017 66.1893 281.795 65.9226 281.632C65.6589 281.47 65.3493 281.388 64.9936 281.388C64.6073 281.388 64.2701 281.483 63.9819 281.674C63.6968 281.861 63.4761 282.106 63.3197 282.409C63.1664 282.71 63.0898 283.036 63.0898 283.389V284.194C63.0898 284.666 63.1726 285.067 63.3381 285.398C63.5067 285.73 63.7413 285.982 64.0417 286.157C64.3421 286.329 64.6932 286.415 65.0948 286.415C65.3554 286.415 65.593 286.378 65.8076 286.304C66.0222 286.228 66.2077 286.114 66.364 285.964C66.5204 285.814 66.6399 285.628 66.7227 285.408L68.0241 285.642C67.9199 286.025 67.7329 286.361 67.4631 286.649C67.1964 286.934 66.8607 287.157 66.456 287.316C66.0544 287.472 65.596 287.551 65.081 287.551ZM72.5297 280.345V281.448H68.6714V280.345H72.5297ZM69.7061 278.652H71.0811V285.334C71.0811 285.601 71.121 285.802 71.2007 285.937C71.2804 286.068 71.3831 286.159 71.5088 286.208C71.6375 286.254 71.777 286.277 71.9273 286.277C72.0376 286.277 72.1342 286.269 72.217 286.254C72.2997 286.238 72.3641 286.226 72.4101 286.217L72.6584 287.353C72.5787 287.384 72.4653 287.414 72.3181 287.445C72.171 287.479 71.987 287.497 71.7663 287.5C71.4045 287.506 71.0673 287.442 70.7546 287.307C70.4419 287.172 70.189 286.964 69.9958 286.681C69.8027 286.399 69.7061 286.045 69.7061 285.619V278.652ZM76.6144 287.551C75.9185 287.551 75.3192 287.402 74.8164 287.105C74.3166 286.804 73.9304 286.383 73.6575 285.84C73.3877 285.294 73.2528 284.655 73.2528 283.922C73.2528 283.199 73.3877 282.561 73.6575 282.009C73.9304 281.457 74.3105 281.027 74.798 280.717C75.2885 280.407 75.8618 280.253 76.5179 280.253C76.9164 280.253 77.3027 280.318 77.6767 280.45C78.0508 280.582 78.3865 280.789 78.6838 281.071C78.9812 281.353 79.2158 281.72 79.3874 282.17C79.5591 282.618 79.645 283.162 79.645 283.803V284.29H74.03V283.26H78.2976C78.2976 282.898 78.224 282.578 78.0768 282.299C77.9297 282.017 77.7227 281.795 77.456 281.632C77.1923 281.47 76.8827 281.388 76.5271 281.388C76.1408 281.388 75.8035 281.483 75.5154 281.674C75.2302 281.861 75.0095 282.106 74.8532 282.409C74.6999 282.71 74.6232 283.036 74.6232 283.389V284.194C74.6232 284.666 74.706 285.067 74.8716 285.398C75.0402 285.73 75.2747 285.982 75.5751 286.157C75.8756 286.329 76.2266 286.415 76.6282 286.415C76.8888 286.415 77.1264 286.378 77.341 286.304C77.5556 286.228 77.7411 286.114 77.8975 285.964C78.0538 285.814 78.1734 285.628 78.2562 285.408L79.5576 285.642C79.4534 286.025 79.2663 286.361 78.9966 286.649C78.7298 286.934 78.3941 287.157 77.9894 287.316C77.5878 287.472 77.1295 287.551 76.6144 287.551Z" fill="white"/>
<g filter="url(#filter2_d_1_467)">
<rect x="5" y="141.983" width="97.9331" height="97.9331" rx="12" fill="#0B1023"/>
<path opacity="0.4" fill-rule="evenodd" clip-rule="evenodd" d="M39.3477 180.783C39.3477 178.324 41.3408 176.331 43.7993 176.331C46.2578 176.331 48.2508 178.324 48.2508 180.783C48.2508 183.241 46.2578 185.234 43.7993 185.234C41.3408 185.234 39.3477 183.241 39.3477 180.783Z" fill="#3569CF"/>
<path opacity="0.4" d="M76.7189 192.919C72.3851 190.124 68.2564 188.953 64.3048 189.118C60.3714 189.282 56.8347 190.761 53.6532 192.888C48.2703 196.487 43.5359 202.23 39.2968 207.371C38.6258 208.185 37.967 208.984 37.3202 209.757L35.4532 211.389L38.1753 213.242C40.0988 214.039 42.3484 214.388 44.9338 214.558C47.5091 214.727 50.611 214.727 54.2998 214.727H54.5393C59.3825 214.727 63.2435 214.727 66.2708 214.32C69.3966 213.9 71.9647 213.009 73.9955 210.978C75.7749 209.199 76.6846 207.016 77.1643 204.385C77.6315 201.822 77.7189 198.661 77.7383 194.801L77.7445 193.58L76.7189 192.919Z" fill="#3569CF"/>
<path fill-rule="evenodd" clip-rule="evenodd" d="M54.2047 167.984H54.5363C59.3793 167.983 63.2406 167.983 66.2678 168.39C69.3937 168.811 71.9617 169.701 73.9925 171.732C76.0233 173.763 76.9138 176.331 77.334 179.457C77.7409 182.484 77.7409 186.345 77.7409 191.188V191.52C77.7409 196.363 77.7409 200.224 77.334 203.251C76.9138 206.377 76.0233 208.945 73.9925 210.976C71.9617 213.007 69.3937 213.897 66.2678 214.317C63.2403 214.724 59.3793 214.724 54.5361 214.724H54.2049C49.3616 214.724 45.5005 214.724 42.4732 214.317C39.3474 213.897 36.7793 213.007 34.7486 210.976C32.7178 208.945 31.8273 206.377 31.407 203.251C31 200.224 31 196.363 31.0001 191.52V191.188C31 186.345 31 182.484 31.407 179.457C31.8273 176.331 32.7178 173.763 34.7486 171.732C36.7793 169.701 39.3474 168.811 42.4732 168.39C45.5005 167.983 49.3616 167.983 54.2047 167.984ZM43.0664 172.802C40.4342 173.156 38.9621 173.814 37.8963 174.88C36.8305 175.945 36.1727 177.418 35.8188 180.05C35.4563 182.746 35.4516 186.307 35.4516 191.354C35.4516 196.401 35.4563 199.962 35.8188 202.658C36.1727 205.29 36.8305 206.762 37.8963 207.828C38.9621 208.894 40.4342 209.552 43.0664 209.906C45.7626 210.268 49.3237 210.273 54.3705 210.273C59.4172 210.273 62.9784 210.268 65.6746 209.906C68.3068 209.552 69.7789 208.894 70.8448 207.828C71.9105 206.762 72.5682 205.29 72.9221 202.658C73.2847 199.962 73.2894 196.401 73.2894 191.354C73.2894 186.307 73.2847 182.746 72.9221 180.05C72.5682 177.418 71.9105 175.945 70.8448 174.88C69.7789 173.814 68.3068 173.156 65.6746 172.802C62.9784 172.44 59.4172 172.435 54.3705 172.435C49.3237 172.435 45.7626 172.44 43.0664 172.802Z" fill="#3569CF"/>
</g>
<g filter="url(#filter3_d_1_467)">
<rect x="371.642" y="257.722" width="97.9331" height="97.9331" rx="12" fill="#0B1023"/>
<path opacity="0.4" d="M412.26 299.953C415.054 299.825 417.891 299.758 421.013 299.758C424.134 299.758 426.971 299.825 429.765 299.953C433.791 300.138 437.059 303.255 437.59 307.2C437.88 309.353 438.127 311.614 438.127 313.938C438.127 316.262 437.88 318.524 437.59 320.676C437.059 324.621 433.791 327.739 429.765 327.924C426.971 328.052 424.134 328.119 421.013 328.119C417.891 328.119 415.054 328.052 412.26 327.924C408.235 327.739 404.966 324.621 404.435 320.676C404.145 318.524 403.898 316.262 403.898 313.938C403.898 311.614 404.145 309.353 404.435 307.2C404.966 303.255 408.235 300.138 412.26 299.953Z" fill="#236936"/>
<path fill-rule="evenodd" clip-rule="evenodd" d="M417.402 307.582C416.201 307.582 415.044 308.317 414.651 309.534L411.794 318.378C411.545 319.149 411.968 319.975 412.739 320.225C413.51 320.474 414.336 320.05 414.586 319.28L415.205 317.362H419.6L420.219 319.28C420.469 320.05 421.295 320.474 422.066 320.225C422.837 319.975 423.26 319.149 423.011 318.378L420.154 309.534C419.761 308.317 418.604 307.582 417.402 307.582ZM416.154 314.427L417.403 310.56L418.652 314.427H416.154Z" fill="#236936"/>
<path d="M428.348 309.049C428.348 308.239 427.691 307.582 426.881 307.582C426.07 307.582 425.414 308.239 425.414 309.049V318.829C425.414 319.639 426.07 320.296 426.881 320.296C427.691 320.296 428.348 319.639 428.348 318.829V309.049Z" fill="#236936"/>
<path d="M414.167 296.824C414.167 293.043 417.232 289.978 421.013 289.978C424.794 289.978 427.859 293.043 427.859 296.824V299.876C428.499 299.898 429.133 299.924 429.766 299.953C430.46 299.985 431.132 300.104 431.771 300.3V296.824C431.771 290.883 426.955 286.066 421.013 286.066C415.072 286.066 410.255 290.883 410.255 296.824V300.3C410.895 300.104 411.566 299.985 412.261 299.953C412.893 299.924 413.528 299.898 414.167 299.876V296.824Z" fill="#236936"/>
</g>
<defs>
<filter id="filter0_b_1_467" x="83.7512" y="-9.12508" width="414.718" height="296.551" filterUnits="userSpaceOnUse" color-interpolation-filters="sRGB">
<feFlood flood-opacity="0" result="BackgroundImageFix"/>
<feGaussianBlur in="BackgroundImageFix" stdDeviation="4.73478"/>
<feComposite in2="SourceAlpha" operator="in" result="effect1_backgroundBlur_1_467"/>
<feBlend mode="normal" in="SourceGraphic" in2="effect1_backgroundBlur_1_467" result="shape"/>
</filter>
<filter id="filter1_b_1_467" x="-23.085" y="-31.7873" width="544.217" height="426.049" filterUnits="userSpaceOnUse" color-interpolation-filters="sRGB">
<feFlood flood-opacity="0" result="BackgroundImageFix"/>
<feGaussianBlur in="BackgroundImageFix" stdDeviation="37.1094"/>
<feComposite in2="SourceAlpha" operator="in" result="effect1_backgroundBlur_1_467"/>
<feBlend mode="normal" in="SourceGraphic" in2="effect1_backgroundBlur_1_467" result="shape"/>
</filter>
<filter id="filter2_d_1_467" x="0.953177" y="137.936" width="106.027" height="106.027" filterUnits="userSpaceOnUse" color-interpolation-filters="sRGB">
<feFlood flood-opacity="0" result="BackgroundImageFix"/>
<feColorMatrix in="SourceAlpha" type="matrix" values="0 0 0 0 0 0 0 0 0 0 0 0 0 0 0 0 0 0 127 0" result="hardAlpha"/>
<feMorphology radius="4.04682" operator="dilate" in="SourceAlpha" result="effect1_dropShadow_1_467"/>
<feOffset/>
<feComposite in2="hardAlpha" operator="out"/>
<feColorMatrix type="matrix" values="0 0 0 0 1 0 0 0 0 1 0 0 0 0 1 0 0 0 0.11 0"/>
<feBlend mode="normal" in2="BackgroundImageFix" result="effect1_dropShadow_1_467"/>
<feBlend mode="normal" in="SourceGraphic" in2="effect1_dropShadow_1_467" result="shape"/>
</filter>
<filter id="filter3_d_1_467" x="367.595" y="253.676" width="106.027" height="106.027" filterUnits="userSpaceOnUse" color-interpolation-filters="sRGB">
<feFlood flood-opacity="0" result="BackgroundImageFix"/>
<feColorMatrix in="SourceAlpha" type="matrix" values="0 0 0 0 0 0 0 0 0 0 0 0 0 0 0 0 0 0 127 0" result="hardAlpha"/>
<feMorphology radius="4.04682" operator="dilate" in="SourceAlpha" result="effect1_dropShadow_1_467"/>
<feOffset/>
<feComposite in2="hardAlpha" operator="out"/>
<feColorMatrix type="matrix" values="0 0 0 0 1 0 0 0 0 1 0 0 0 0 1 0 0 0 0.11 0"/>
<feBlend mode="normal" in2="BackgroundImageFix" result="effect1_dropShadow_1_467"/>
<feBlend mode="normal" in="SourceGraphic" in2="effect1_dropShadow_1_467" result="shape"/>
</filter>
<linearGradient id="paint0_linear_1_467" x1="126" y1="0.34446" x2="541.899" y2="109.399" gradientUnits="userSpaceOnUse">
<stop stop-color="#0084FF"/>
<stop offset="0.438035" stop-color="#FFAB90"/>
<stop offset="1" stop-color="#FD8AC8"/>
</linearGradient>
<linearGradient id="paint1_linear_1_467" x1="87.9599" y1="4.39128" x2="361.777" y2="382.419" gradientUnits="userSpaceOnUse">
<stop stop-color="#2D2E48"/>
<stop offset="1" stop-color="white" stop-opacity="0.06"/>
</linearGradient>
<linearGradient id="paint2_linear_1_467" x1="372.452" y1="78.0435" x2="207.573" y2="396.379" gradientUnits="userSpaceOnUse">
<stop stop-color="#1B1C36"/>
<stop offset="1" stop-color="#00000B"/>
</linearGradient>
<linearGradient id="paint3_linear_1_467" x1="51.1338" y1="320.043" x2="489.082" y2="209.511" gradientUnits="userSpaceOnUse">
<stop offset="0.362307" stop-color="#2C2D47"/>
<stop offset="1" stop-color="white" stop-opacity="0.07"/>
</linearGradient>
</defs>
</svg>
