<svg width="10" height="18" viewBox="0 0 10 18" fill="none" xmlns="http://www.w3.org/2000/svg">
<path opacity="0.5" d="M0.561322 1.30888C0.943417 0.790061 1.67375 0.679239 2.19255 1.06135C2.59553 1.35813 2.97859 1.65499 3.31225 1.91536C3.97819 2.43512 4.87022 3.15067 5.76552 3.92808C6.6551 4.70046 7.57479 5.55683 8.2812 6.35633C8.63319 6.7547 8.95694 7.16654 9.19902 7.5681C9.42174 7.93759 9.66732 8.44532 9.66732 9.00077C9.66732 9.55622 9.42174 10.0641 9.19902 10.4336C8.95694 10.8351 8.63319 11.2468 8.2812 11.6453C7.57479 12.4448 6.6551 13.3011 5.76552 14.0736C4.87022 14.8509 3.97819 15.5664 3.31225 16.0863C2.97859 16.3466 2.59553 16.6435 2.19257 16.9403C1.67375 17.3224 0.943417 17.2115 0.561322 16.6927C0.407719 16.4841 0.333786 16.2415 0.333996 16.0009L0.333985 9.00077V2.00073C0.333786 1.76017 0.407719 1.51743 0.561322 1.30888Z" fill="white"/>
<path d="M8.2812 6.35633C8.63319 6.7547 8.95694 7.16653 9.19902 7.5681C9.42174 7.93758 9.66732 8.44532 9.66732 9.00077C9.66732 9.55622 9.42174 10.0641 9.19902 10.4336C8.95694 10.8351 8.63319 11.2468 8.2812 11.6452C7.57479 12.4448 6.6551 13.3011 5.76552 14.0735C4.87022 14.8509 3.97819 15.5664 3.31225 16.0863C2.97859 16.3466 2.59553 16.6435 2.19257 16.9403C1.67375 17.3224 0.943417 17.2115 0.561322 16.6927C0.407718 16.4841 0.333786 16.2414 0.333996 16.0009L0.333984 10.1673L6.2267 4.33398C6.96567 4.9938 7.69647 5.69455 8.2812 6.35633Z" fill="white"/>
</svg>
