<svg width="10" height="14" viewBox="0 0 10 14" fill="none" xmlns="http://www.w3.org/2000/svg">
<path d="M8.2812 2.35633C8.63319 2.7547 8.95694 3.16653 9.19902 3.5681C9.42174 3.93758 9.66732 4.44532 9.66732 5.00077C9.66732 5.55622 9.42174 6.06407 9.19902 6.43355C8.95694 6.83512 8.63319 7.24683 8.2812 7.64525C7.57479 8.44477 6.6551 9.3011 5.76552 10.0735C4.87022 10.8509 3.97819 11.5664 3.31225 12.0863C2.97859 12.3466 2.59553 12.6435 2.19257 12.9403C1.67375 13.3224 0.943417 13.2115 0.561322 12.6927C0.407718 12.4841 0.333786 12.2414 0.333996 12.0009L0.333984 6.16732L6.2267 0.333984C6.96567 0.993804 7.69647 1.69455 8.2812 2.35633Z" fill="white"/>
</svg>
