<svg width="46" height="46" viewBox="0 0 46 46" fill="none" xmlns="http://www.w3.org/2000/svg">
<g filter="url(#filter0_d_1_285)">
<rect x="1" y="1" width="44" height="44" rx="12" fill="white" fill-opacity="0.07" shape-rendering="crispEdges"/>
<path opacity="0.4" d="M17.1674 10.8777C18.5762 10.1478 20.1916 9.47656 22.1786 9.47656C24.1656 9.47656 25.7815 10.1478 27.1912 10.8777C27.617 11.0982 28.0126 11.3163 28.3908 11.5248C29.3162 12.035 30.1365 12.4872 31.037 12.7744C31.5655 12.9429 32.0338 13.0922 32.3657 13.2223C32.6783 13.3447 33.0497 13.5125 33.3132 13.8053C33.5501 14.0684 33.6717 14.3637 33.7523 14.6462C33.8255 14.9027 33.8881 15.2499 33.9481 15.583C35.4115 23.6967 32.2155 31.3838 24.4035 34.375C23.6355 34.669 23.07 34.8857 22.1825 34.8857C21.2948 34.8857 20.7293 34.669 19.9614 34.375C12.149 31.3839 8.94986 23.697 10.4129 15.5831C10.4729 15.25 10.5355 14.9029 10.6086 14.6464C10.6893 14.3639 10.8109 14.0686 11.0476 13.8056C11.3111 13.5127 11.6825 13.3449 11.995 13.2225C12.327 13.0923 12.7952 12.943 13.3238 12.7743C14.2239 12.4871 15.0434 12.035 15.9681 11.5249C16.3461 11.3164 16.7416 11.0982 17.1674 10.8777Z" fill="#88E5BE"/>
<path fill-rule="evenodd" clip-rule="evenodd" d="M22.1825 28.0916C25.446 28.0916 28.0916 25.446 28.0916 22.1825C28.0916 18.919 25.446 16.2734 22.1825 16.2734C18.919 16.2734 16.2734 18.919 16.2734 22.1825C16.2734 25.446 18.919 28.0916 22.1825 28.0916ZM24.8421 21.2456C25.3035 21.0821 25.5452 20.5756 25.3817 20.1141C25.2183 19.6527 24.7117 19.4111 24.2502 19.5745C23.6805 19.7763 23.1515 20.1543 22.7038 20.5469C22.2471 20.9475 21.8236 21.4093 21.4672 21.8366C21.2944 22.0437 21.1348 22.2456 20.9922 22.433C20.888 22.3355 20.7835 22.253 20.6798 22.1839C20.6586 22.1698 20.6374 22.155 20.6158 22.1399C20.4466 22.022 20.253 21.8873 19.8189 21.8873C19.3294 21.8873 18.9325 22.2842 18.9325 22.7737C18.9325 23.2165 19.2573 23.5836 19.6817 23.6495C19.6859 23.652 19.6909 23.6551 19.6965 23.6589C19.7624 23.7028 19.9651 23.8661 20.2079 24.3519C20.3508 24.6376 20.6364 24.8244 20.9553 24.8407C21.2743 24.857 21.5777 24.7 21.749 24.4305C21.9414 24.1579 22.5087 23.3554 22.8284 22.9721C23.1497 22.5869 23.5084 22.1993 23.8728 21.8797C24.2463 21.5521 24.5776 21.3392 24.8421 21.2456Z" fill="#88E5BE"/>
</g>
<defs>
<filter id="filter0_d_1_285" x="0" y="0" width="46" height="46" filterUnits="userSpaceOnUse" color-interpolation-filters="sRGB">
<feFlood flood-opacity="0" result="BackgroundImageFix"/>
<feColorMatrix in="SourceAlpha" type="matrix" values="0 0 0 0 0 0 0 0 0 0 0 0 0 0 0 0 0 0 127 0" result="hardAlpha"/>
<feMorphology radius="1" operator="dilate" in="SourceAlpha" result="effect1_dropShadow_1_285"/>
<feOffset/>
<feComposite in2="hardAlpha" operator="out"/>
<feColorMatrix type="matrix" values="0 0 0 0 0.176471 0 0 0 0 0.180392 0 0 0 0 0.282353 0 0 0 1 0"/>
<feBlend mode="normal" in2="BackgroundImageFix" result="effect1_dropShadow_1_285"/>
<feBlend mode="normal" in="SourceGraphic" in2="effect1_dropShadow_1_285" result="shape"/>
</filter>
</defs>
</svg>
