<svg width="509" height="358" viewBox="0 0 509 358" fill="none" xmlns="http://www.w3.org/2000/svg">
<path fill-rule="evenodd" clip-rule="evenodd" d="M330.485 19.0938C305.478 19.0938 285.145 27.5419 267.413 36.7288C262.054 39.5048 257.076 42.2509 252.319 44.875C240.68 51.2956 230.364 56.9863 219.036 60.6008C212.382 62.7236 206.488 64.604 202.31 66.2416C198.376 67.7827 193.702 69.8949 190.385 73.5807C187.406 76.8918 185.876 80.6089 184.861 84.1644C183.94 87.392 183.152 91.7615 182.397 95.9536C163.982 198.08 204.249 294.832 302.58 332.479C312.244 336.18 319.363 338.906 330.534 338.906C341.707 338.906 348.825 336.18 358.489 332.479C456.817 294.83 497.044 198.076 478.624 95.9529C477.868 91.7604 477.08 87.3898 476.159 84.1621C475.143 80.6062 473.613 76.8886 470.633 73.5776C467.316 69.8917 462.642 67.7802 458.708 66.2395C454.529 64.6025 448.636 62.7232 441.982 60.6015C430.649 56.9869 420.324 51.295 408.676 44.8735C403.917 42.25 398.936 39.5037 393.578 36.7287C375.835 27.542 355.495 19.0938 330.485 19.0938ZM293.313 129.727V145.519C292.195 145.858 291.085 146.264 289.982 146.754C280.757 150.848 273.662 158.587 270.014 168.022C268.438 172.098 267.833 176.282 267.552 180.694C267.281 184.941 267.281 190.113 267.281 196.313V197.015C267.281 203.214 267.281 208.387 267.552 212.634C267.833 217.046 268.438 221.232 270.014 225.306C273.662 234.743 280.757 242.481 289.982 246.574C294.033 248.373 298.18 249.051 302.428 249.362C306.468 249.656 311.364 249.656 317.096 249.656H343.904C349.638 249.656 354.532 249.656 358.572 249.362C362.821 249.051 366.968 248.373 371.018 246.574C380.244 242.481 387.339 234.743 390.986 225.306C392.562 221.232 393.167 217.046 393.448 212.634C393.719 208.387 393.719 203.214 393.719 197.015V196.313C393.719 190.113 393.719 184.941 393.448 180.694C393.167 176.282 392.562 172.098 390.986 168.022C387.339 158.587 380.244 150.848 371.018 146.754C369.916 146.264 368.805 145.858 367.688 145.519V129.727C367.688 109.323 350.653 93.4688 330.5 93.4688C310.348 93.4688 293.313 109.323 293.313 129.727ZM330.5 115.781C321.9 115.781 315.625 122.404 315.625 129.727V143.672L317.096 143.672H343.904L345.375 143.672V129.727C345.375 122.404 339.101 115.781 330.5 115.781Z" fill="#0084FF"/>
<g filter="url(#filter0_b_1_622)">
<rect x="102" y="274.5" width="242" height="74" rx="20" fill="url(#paint0_linear_1_622)" fill-opacity="0.16"/>
<rect x="102.5" y="275" width="241" height="73" rx="19.5" stroke="url(#paint1_linear_1_622)"/>
<g filter="url(#filter1_d_1_622)">
<g clip-path="url(#clip0_1_622)">
<rect x="114" y="285.5" width="52" height="52" rx="16" fill="white" fill-opacity="0.07" shape-rendering="crispEdges"/>
<path d="M147.043 315.034C147.18 315.116 147.35 315.212 147.542 315.32C148.385 315.795 149.658 316.514 150.531 317.368C151.076 317.902 151.595 318.605 151.689 319.468C151.789 320.385 151.389 321.245 150.587 322.01C149.202 323.328 147.541 324.386 145.392 324.386H134.97C132.821 324.386 131.16 323.328 129.776 322.01C128.973 321.245 128.573 320.385 128.673 319.468C128.768 318.605 129.286 317.902 129.832 317.368C130.704 316.514 131.977 315.795 132.82 315.32C133.012 315.212 133.182 315.116 133.319 315.034C137.52 312.533 142.843 312.533 147.043 315.034Z" fill="#4770FF"/>
<path opacity="0.4" d="M133.977 305.181C133.977 301.754 136.754 298.977 140.181 298.977C143.608 298.977 146.386 301.754 146.386 305.181C146.386 308.608 143.608 311.386 140.181 311.386C136.754 311.386 133.977 308.608 133.977 305.181Z" fill="#4770FF"/>
<g filter="url(#filter2_f_1_622)">
<circle cx="140.467" cy="314.967" r="6.5" fill="#4871FE"/>
</g>
</g>
</g>
<path d="M193.915 295.318H195.148V302.06C195.148 302.756 194.984 303.377 194.656 303.924C194.331 304.468 193.872 304.897 193.278 305.212C192.685 305.523 191.989 305.679 191.19 305.679C190.392 305.679 189.696 305.523 189.102 305.212C188.509 304.897 188.048 304.468 187.72 303.924C187.395 303.377 187.233 302.756 187.233 302.06V295.318H188.466V301.96C188.466 302.457 188.575 302.9 188.794 303.288C189.013 303.672 189.324 303.975 189.729 304.197C190.136 304.416 190.624 304.526 191.19 304.526C191.757 304.526 192.244 304.416 192.652 304.197C193.06 303.975 193.371 303.672 193.587 303.288C193.805 302.9 193.915 302.457 193.915 301.96V295.318ZM202.86 299.574L201.806 299.872C201.74 299.696 201.642 299.526 201.513 299.36C201.387 299.191 201.214 299.052 200.996 298.942C200.777 298.833 200.497 298.778 200.155 298.778C199.688 298.778 199.299 298.886 198.987 299.102C198.679 299.314 198.525 299.584 198.525 299.912C198.525 300.204 198.631 300.434 198.843 300.603C199.055 300.772 199.386 300.913 199.837 301.026L200.971 301.304C201.653 301.47 202.162 301.723 202.497 302.065C202.832 302.403 202.999 302.839 202.999 303.372C202.999 303.81 202.873 304.201 202.621 304.545C202.373 304.89 202.025 305.162 201.577 305.361C201.13 305.56 200.609 305.659 200.016 305.659C199.237 305.659 198.593 305.49 198.082 305.152C197.572 304.814 197.249 304.32 197.113 303.67L198.226 303.392C198.332 303.803 198.533 304.111 198.828 304.317C199.126 304.522 199.516 304.625 199.996 304.625C200.543 304.625 200.977 304.509 201.299 304.277C201.624 304.042 201.786 303.76 201.786 303.432C201.786 303.167 201.693 302.945 201.508 302.766C201.322 302.583 201.037 302.447 200.653 302.358L199.38 302.06C198.68 301.894 198.167 301.637 197.839 301.289C197.514 300.938 197.351 300.499 197.351 299.972C197.351 299.541 197.472 299.16 197.714 298.828C197.96 298.497 198.293 298.237 198.714 298.048C199.138 297.859 199.618 297.764 200.155 297.764C200.911 297.764 201.504 297.93 201.935 298.261C202.369 298.593 202.678 299.03 202.86 299.574ZM207.967 305.659C207.231 305.659 206.596 305.497 206.063 305.172C205.533 304.844 205.123 304.386 204.835 303.8C204.55 303.21 204.407 302.524 204.407 301.741C204.407 300.959 204.55 300.27 204.835 299.673C205.123 299.073 205.524 298.606 206.038 298.271C206.555 297.933 207.158 297.764 207.848 297.764C208.245 297.764 208.638 297.83 209.026 297.963C209.414 298.096 209.767 298.311 210.085 298.609C210.403 298.904 210.657 299.295 210.846 299.783C211.034 300.27 211.129 300.87 211.129 301.582V302.08H205.243V301.065H209.936C209.936 300.634 209.85 300.25 209.677 299.912C209.508 299.574 209.266 299.307 208.951 299.112C208.64 298.916 208.272 298.818 207.848 298.818C207.38 298.818 206.976 298.934 206.635 299.166C206.297 299.395 206.036 299.693 205.854 300.061C205.672 300.429 205.581 300.823 205.581 301.244V301.92C205.581 302.497 205.68 302.986 205.879 303.387C206.081 303.785 206.361 304.088 206.719 304.297C207.077 304.502 207.493 304.605 207.967 304.605C208.275 304.605 208.554 304.562 208.802 304.476C209.054 304.386 209.271 304.254 209.453 304.078C209.636 303.899 209.777 303.677 209.876 303.412L211.01 303.73C210.89 304.115 210.69 304.453 210.408 304.744C210.126 305.033 209.778 305.258 209.364 305.42C208.95 305.58 208.484 305.659 207.967 305.659ZM212.914 305.5V297.864H214.047V299.017H214.127C214.266 298.639 214.518 298.333 214.882 298.097C215.247 297.862 215.658 297.744 216.115 297.744C216.202 297.744 216.309 297.746 216.439 297.749C216.568 297.753 216.666 297.758 216.732 297.764V298.957C216.692 298.947 216.601 298.933 216.458 298.913C216.319 298.889 216.172 298.878 216.016 298.878C215.645 298.878 215.313 298.956 215.022 299.112C214.733 299.264 214.505 299.476 214.336 299.748C214.17 300.016 214.087 300.323 214.087 300.668V305.5H212.914ZM223.233 300.906V305.5H222.06V297.864H223.194V299.057H223.293C223.472 298.669 223.744 298.357 224.108 298.122C224.473 297.884 224.944 297.764 225.52 297.764C226.037 297.764 226.49 297.87 226.878 298.082C227.265 298.291 227.567 298.609 227.782 299.037C227.998 299.461 228.106 299.998 228.106 300.648V305.5H226.932V300.727C226.932 300.127 226.777 299.66 226.465 299.325C226.153 298.987 225.726 298.818 225.182 298.818C224.808 298.818 224.473 298.899 224.178 299.062C223.886 299.224 223.656 299.461 223.487 299.773C223.318 300.084 223.233 300.462 223.233 300.906ZM232.497 305.679C232.013 305.679 231.574 305.588 231.179 305.406C230.785 305.22 230.472 304.953 230.24 304.605C230.008 304.254 229.892 303.83 229.892 303.332C229.892 302.895 229.978 302.54 230.15 302.268C230.323 301.993 230.553 301.778 230.841 301.622C231.13 301.466 231.448 301.35 231.796 301.274C232.147 301.195 232.5 301.132 232.855 301.085C233.319 301.026 233.695 300.981 233.983 300.951C234.275 300.918 234.487 300.863 234.62 300.787C234.756 300.711 234.824 300.578 234.824 300.389V300.349C234.824 299.859 234.689 299.478 234.421 299.206C234.156 298.934 233.753 298.798 233.213 298.798C232.653 298.798 232.213 298.921 231.895 299.166C231.577 299.411 231.353 299.673 231.224 299.952L230.11 299.554C230.309 299.09 230.574 298.729 230.906 298.47C231.241 298.208 231.605 298.026 232 297.923C232.397 297.817 232.788 297.764 233.173 297.764C233.418 297.764 233.7 297.794 234.018 297.854C234.34 297.91 234.65 298.028 234.948 298.207C235.249 298.386 235.5 298.656 235.699 299.017C235.897 299.378 235.997 299.862 235.997 300.469V305.5H234.824V304.466H234.764C234.684 304.632 234.552 304.809 234.366 304.998C234.181 305.187 233.934 305.348 233.625 305.48C233.317 305.613 232.941 305.679 232.497 305.679ZM232.676 304.625C233.14 304.625 233.531 304.534 233.849 304.352C234.171 304.169 234.413 303.934 234.575 303.646C234.741 303.357 234.824 303.054 234.824 302.736V301.662C234.774 301.722 234.664 301.776 234.495 301.826C234.33 301.872 234.137 301.914 233.919 301.95C233.703 301.983 233.493 302.013 233.287 302.04C233.085 302.063 232.921 302.083 232.795 302.099C232.49 302.139 232.205 302.204 231.94 302.293C231.678 302.379 231.466 302.51 231.304 302.686C231.145 302.858 231.065 303.094 231.065 303.392C231.065 303.8 231.216 304.108 231.517 304.317C231.822 304.522 232.208 304.625 232.676 304.625ZM238.138 305.5V297.864H239.272V299.057H239.371C239.53 298.649 239.787 298.333 240.142 298.107C240.497 297.879 240.922 297.764 241.42 297.764C241.923 297.764 242.343 297.879 242.677 298.107C243.015 298.333 243.279 298.649 243.468 299.057H243.547C243.743 298.662 244.036 298.349 244.427 298.117C244.818 297.882 245.287 297.764 245.834 297.764C246.517 297.764 247.076 297.978 247.51 298.406C247.944 298.83 248.161 299.491 248.161 300.389V305.5H246.988V300.389C246.988 299.826 246.834 299.423 246.525 299.181C246.217 298.939 245.854 298.818 245.437 298.818C244.9 298.818 244.484 298.981 244.189 299.305C243.894 299.627 243.746 300.035 243.746 300.528V305.5H242.553V300.27C242.553 299.836 242.412 299.486 242.131 299.221C241.849 298.952 241.486 298.818 241.042 298.818C240.737 298.818 240.452 298.899 240.187 299.062C239.925 299.224 239.713 299.45 239.55 299.738C239.391 300.023 239.312 300.353 239.312 300.727V305.5H238.138ZM253.508 305.659C252.772 305.659 252.137 305.497 251.604 305.172C251.074 304.844 250.664 304.386 250.376 303.8C250.091 303.21 249.948 302.524 249.948 301.741C249.948 300.959 250.091 300.27 250.376 299.673C250.664 299.073 251.065 298.606 251.579 298.271C252.096 297.933 252.699 297.764 253.389 297.764C253.786 297.764 254.179 297.83 254.567 297.963C254.955 298.096 255.308 298.311 255.626 298.609C255.944 298.904 256.198 299.295 256.387 299.783C256.575 300.27 256.67 300.87 256.67 301.582V302.08H250.784V301.065H255.477C255.477 300.634 255.391 300.25 255.218 299.912C255.049 299.574 254.807 299.307 254.492 299.112C254.181 298.916 253.813 298.818 253.389 298.818C252.921 298.818 252.517 298.934 252.176 299.166C251.838 299.395 251.577 299.693 251.395 300.061C251.213 300.429 251.122 300.823 251.122 301.244V301.92C251.122 302.497 251.221 302.986 251.42 303.387C251.622 303.785 251.902 304.088 252.26 304.297C252.618 304.502 253.034 304.605 253.508 304.605C253.816 304.605 254.095 304.562 254.343 304.476C254.595 304.386 254.812 304.254 254.994 304.078C255.177 303.899 255.318 303.677 255.417 303.412L256.551 303.73C256.431 304.115 256.231 304.453 255.949 304.744C255.667 305.033 255.319 305.258 254.905 305.42C254.491 305.58 254.025 305.659 253.508 305.659Z" fill="#AFB3CA"/>
<path d="M191.216 319.773V321.136H186.449V319.773H191.216ZM187.727 317.682H189.426V325.938C189.426 326.267 189.475 326.515 189.574 326.682C189.672 326.845 189.799 326.956 189.955 327.017C190.114 327.074 190.286 327.102 190.472 327.102C190.608 327.102 190.727 327.093 190.83 327.074C190.932 327.055 191.011 327.04 191.068 327.028L191.375 328.432C191.277 328.47 191.136 328.508 190.955 328.545C190.773 328.587 190.545 328.61 190.273 328.614C189.826 328.621 189.409 328.542 189.023 328.375C188.636 328.208 188.324 327.951 188.085 327.602C187.847 327.254 187.727 326.816 187.727 326.29V317.682ZM198.124 324.881V319.773H199.828V328.5H198.158V326.989H198.067C197.866 327.455 197.544 327.843 197.101 328.153C196.661 328.46 196.114 328.614 195.459 328.614C194.898 328.614 194.402 328.491 193.97 328.244C193.542 327.994 193.205 327.625 192.959 327.136C192.716 326.648 192.595 326.044 192.595 325.324V319.773H194.294V325.119C194.294 325.714 194.459 326.187 194.788 326.54C195.118 326.892 195.546 327.068 196.072 327.068C196.391 327.068 196.707 326.989 197.021 326.83C197.339 326.67 197.603 326.43 197.811 326.108C198.023 325.786 198.127 325.377 198.124 324.881ZM205.764 319.773V321.136H200.832V319.773H205.764ZM202.185 328.5V318.761C202.185 318.216 202.304 317.763 202.543 317.403C202.781 317.04 203.098 316.769 203.491 316.591C203.885 316.409 204.313 316.318 204.776 316.318C205.116 316.318 205.408 316.347 205.651 316.403C205.893 316.456 206.073 316.506 206.19 316.551L205.793 317.926C205.713 317.903 205.611 317.877 205.486 317.847C205.361 317.812 205.209 317.795 205.031 317.795C204.618 317.795 204.323 317.898 204.145 318.102C203.971 318.307 203.884 318.602 203.884 318.989V328.5H202.185ZM209.291 328.693C208.738 328.693 208.238 328.591 207.791 328.386C207.344 328.178 206.99 327.877 206.729 327.483C206.471 327.089 206.342 326.606 206.342 326.034C206.342 325.542 206.437 325.136 206.626 324.818C206.816 324.5 207.071 324.248 207.393 324.062C207.715 323.877 208.075 323.737 208.473 323.642C208.871 323.547 209.276 323.475 209.689 323.426C210.212 323.366 210.636 323.316 210.962 323.278C211.287 323.237 211.524 323.17 211.672 323.08C211.82 322.989 211.893 322.841 211.893 322.636V322.597C211.893 322.1 211.753 321.716 211.473 321.443C211.196 321.17 210.784 321.034 210.234 321.034C209.662 321.034 209.212 321.161 208.882 321.415C208.556 321.665 208.331 321.943 208.206 322.25L206.609 321.886C206.799 321.356 207.075 320.928 207.439 320.602C207.806 320.273 208.229 320.034 208.706 319.886C209.183 319.735 209.685 319.659 210.212 319.659C210.56 319.659 210.929 319.701 211.32 319.784C211.714 319.864 212.081 320.011 212.422 320.227C212.767 320.443 213.049 320.752 213.268 321.153C213.488 321.551 213.598 322.068 213.598 322.705V328.5H211.939V327.307H211.871C211.761 327.527 211.596 327.742 211.376 327.955C211.157 328.167 210.875 328.343 210.53 328.483C210.185 328.623 209.772 328.693 209.291 328.693ZM209.661 327.33C210.13 327.33 210.532 327.237 210.865 327.051C211.202 326.866 211.458 326.623 211.632 326.324C211.81 326.021 211.899 325.697 211.899 325.352V324.227C211.839 324.288 211.721 324.345 211.547 324.398C211.376 324.447 211.181 324.491 210.962 324.528C210.742 324.562 210.528 324.595 210.32 324.625C210.111 324.652 209.937 324.674 209.797 324.693C209.467 324.735 209.166 324.805 208.893 324.903C208.625 325.002 208.409 325.144 208.246 325.33C208.087 325.511 208.007 325.754 208.007 326.057C208.007 326.477 208.162 326.795 208.473 327.011C208.784 327.223 209.179 327.33 209.661 327.33ZM216.122 331.773C215.868 331.773 215.637 331.752 215.429 331.71C215.221 331.672 215.065 331.631 214.963 331.585L215.372 330.193C215.683 330.277 215.959 330.313 216.202 330.301C216.444 330.29 216.658 330.199 216.844 330.028C217.033 329.858 217.2 329.58 217.344 329.193L217.554 328.614L214.361 319.773H216.179L218.389 326.545H218.48L220.69 319.773H222.514L218.918 329.665C218.751 330.119 218.539 330.504 218.281 330.818C218.024 331.136 217.717 331.375 217.361 331.534C217.005 331.693 216.592 331.773 216.122 331.773ZM227.075 328.676C226.215 328.676 225.475 328.492 224.854 328.125C224.236 327.754 223.759 327.233 223.422 326.562C223.089 325.888 222.922 325.098 222.922 324.193C222.922 323.299 223.089 322.511 223.422 321.83C223.759 321.148 224.229 320.616 224.831 320.233C225.437 319.85 226.145 319.659 226.956 319.659C227.448 319.659 227.926 319.741 228.388 319.903C228.85 320.066 229.265 320.322 229.632 320.67C230 321.019 230.289 321.472 230.501 322.028C230.714 322.581 230.82 323.254 230.82 324.045V324.648H223.882V323.375H229.155C229.155 322.928 229.064 322.532 228.882 322.188C228.7 321.839 228.445 321.564 228.115 321.364C227.789 321.163 227.407 321.062 226.967 321.062C226.49 321.062 226.073 321.18 225.717 321.415C225.365 321.646 225.092 321.949 224.899 322.324C224.71 322.695 224.615 323.098 224.615 323.534V324.528C224.615 325.112 224.717 325.608 224.922 326.017C225.13 326.426 225.42 326.739 225.791 326.955C226.162 327.167 226.596 327.273 227.092 327.273C227.414 327.273 227.708 327.227 227.973 327.136C228.238 327.042 228.467 326.902 228.661 326.716C228.854 326.53 229.001 326.301 229.104 326.028L230.712 326.318C230.583 326.792 230.352 327.206 230.018 327.562C229.689 327.915 229.274 328.189 228.774 328.386C228.278 328.58 227.712 328.676 227.075 328.676ZM233.903 316.864V328.5H232.205V316.864H233.903ZM241.122 323.318V328.5H239.423V319.773H241.054V321.193H241.162C241.363 320.731 241.677 320.36 242.105 320.08C242.537 319.799 243.08 319.659 243.736 319.659C244.33 319.659 244.851 319.784 245.298 320.034C245.745 320.28 246.092 320.648 246.338 321.136C246.584 321.625 246.707 322.229 246.707 322.949V328.5H245.009V323.153C245.009 322.521 244.844 322.027 244.514 321.67C244.185 321.311 243.732 321.131 243.156 321.131C242.762 321.131 242.412 321.216 242.105 321.386C241.802 321.557 241.562 321.807 241.384 322.136C241.209 322.462 241.122 322.856 241.122 323.318ZM248.486 328.5V319.773H250.185V328.5H248.486ZM249.344 318.426C249.048 318.426 248.795 318.328 248.582 318.131C248.374 317.93 248.27 317.691 248.27 317.415C248.27 317.134 248.374 316.896 248.582 316.699C248.795 316.498 249.048 316.398 249.344 316.398C249.639 316.398 249.891 316.498 250.099 316.699C250.312 316.896 250.418 317.134 250.418 317.415C250.418 317.691 250.312 317.93 250.099 318.131C249.891 318.328 249.639 318.426 249.344 318.426ZM251.97 319.773H253.669V329.068C253.669 329.652 253.563 330.144 253.351 330.545C253.143 330.947 252.832 331.252 252.419 331.46C252.01 331.669 251.504 331.773 250.902 331.773C250.841 331.773 250.785 331.773 250.732 331.773C250.675 331.773 250.616 331.771 250.555 331.767V330.307C250.608 330.307 250.656 330.307 250.697 330.307C250.735 330.307 250.779 330.307 250.828 330.307C251.23 330.307 251.519 330.199 251.697 329.983C251.879 329.771 251.97 329.462 251.97 329.057V319.773ZM252.811 318.426C252.516 318.426 252.262 318.328 252.05 318.131C251.841 317.93 251.737 317.691 251.737 317.415C251.737 317.134 251.841 316.896 252.05 316.699C252.262 316.498 252.516 316.398 252.811 316.398C253.107 316.398 253.358 316.498 253.567 316.699C253.779 316.896 253.885 317.134 253.885 317.415C253.885 317.691 253.779 317.93 253.567 318.131C253.358 318.328 253.107 318.426 252.811 318.426ZM257.994 328.693C257.441 328.693 256.941 328.591 256.494 328.386C256.047 328.178 255.693 327.877 255.432 327.483C255.174 327.089 255.045 326.606 255.045 326.034C255.045 325.542 255.14 325.136 255.33 324.818C255.519 324.5 255.775 324.248 256.097 324.062C256.419 323.877 256.778 323.737 257.176 323.642C257.574 323.547 257.979 323.475 258.392 323.426C258.915 323.366 259.339 323.316 259.665 323.278C259.991 323.237 260.227 323.17 260.375 323.08C260.523 322.989 260.597 322.841 260.597 322.636V322.597C260.597 322.1 260.456 321.716 260.176 321.443C259.9 321.17 259.487 321.034 258.938 321.034C258.366 321.034 257.915 321.161 257.585 321.415C257.259 321.665 257.034 321.943 256.909 322.25L255.312 321.886C255.502 321.356 255.778 320.928 256.142 320.602C256.509 320.273 256.932 320.034 257.409 319.886C257.886 319.735 258.388 319.659 258.915 319.659C259.263 319.659 259.633 319.701 260.023 319.784C260.417 319.864 260.784 320.011 261.125 320.227C261.47 320.443 261.752 320.752 261.972 321.153C262.191 321.551 262.301 322.068 262.301 322.705V328.5H260.642V327.307H260.574C260.464 327.527 260.299 327.742 260.08 327.955C259.86 328.167 259.578 328.343 259.233 328.483C258.888 328.623 258.475 328.693 257.994 328.693ZM258.364 327.33C258.833 327.33 259.235 327.237 259.568 327.051C259.905 326.866 260.161 326.623 260.335 326.324C260.513 326.021 260.602 325.697 260.602 325.352V324.227C260.542 324.288 260.424 324.345 260.25 324.398C260.08 324.447 259.884 324.491 259.665 324.528C259.445 324.562 259.231 324.595 259.023 324.625C258.814 324.652 258.64 324.674 258.5 324.693C258.17 324.735 257.869 324.805 257.597 324.903C257.328 325.002 257.112 325.144 256.949 325.33C256.79 325.511 256.71 325.754 256.71 326.057C256.71 326.477 256.866 326.795 257.176 327.011C257.487 327.223 257.883 327.33 258.364 327.33Z" fill="#AFB3CA"/>
</g>
<g filter="url(#filter3_b_1_622)">
<rect y="154.5" width="242" height="74" rx="20" fill="url(#paint2_linear_1_622)" fill-opacity="0.16"/>
<rect x="0.5" y="155" width="241" height="73" rx="19.5" stroke="url(#paint3_linear_1_622)"/>
<g filter="url(#filter4_d_1_622)">
<g clip-path="url(#clip1_1_622)">
<rect x="12" y="165.5" width="52" height="52" rx="16" fill="white" fill-opacity="0.07" shape-rendering="crispEdges"/>
<path d="M25.4973 190.1C25.5343 188.368 25.5648 186.937 25.7664 185.777L28.4239 187.145C28.3049 187.103 28.2135 187.099 28.131 187.145C27.9575 187.241 27.9461 187.48 27.9232 187.959C27.8924 188.605 27.8757 189.354 27.8568 190.239C27.8323 191.385 27.8323 191.978 27.8568 193.124C27.8962 194.967 27.926 196.219 28.0935 197.182C28.2512 198.089 28.5143 198.628 28.9644 199.079C29.4098 199.526 29.956 199.793 30.8935 199.956C31.8841 200.129 33.1761 200.164 35.0705 200.212C37.3423 200.269 39.02 200.269 41.2918 200.212C43.1861 200.164 44.4782 200.129 45.4688 199.956C46.4062 199.793 46.9524 199.526 47.3979 199.079C47.8479 198.628 48.1111 198.089 48.2688 197.182C48.4362 196.219 48.4661 194.967 48.5055 193.124C48.5299 191.978 48.5299 191.385 48.5055 190.239C48.4866 189.354 48.4698 188.605 48.4391 187.959C48.4161 187.48 48.4047 187.24 48.2312 187.145C48.1486 187.099 48.057 187.103 47.9376 187.145L50.5958 185.777C50.7974 186.937 50.828 188.368 50.8649 190.1L50.8667 190.189C50.8919 191.368 50.8919 191.995 50.8667 193.174L50.8649 193.263C50.828 194.995 50.7975 196.426 50.5958 197.586C50.381 198.821 49.9569 199.856 49.0711 200.744C48.1807 201.637 47.1295 202.062 45.874 202.28C44.691 202.486 43.2233 202.523 41.4395 202.568L41.3511 202.57C39.0397 202.628 37.3225 202.628 35.0111 202.57L34.9227 202.568C33.1389 202.523 31.6712 202.486 30.4883 202.28C29.2327 202.062 28.1815 201.637 27.2911 200.744C26.4054 199.856 25.9813 198.821 25.7664 197.586C25.5648 196.426 25.5343 194.995 25.4974 193.263L25.4955 193.174C25.4703 191.995 25.4703 191.368 25.4954 190.189L25.4973 190.1Z" fill="#F9A876"/>
<path opacity="0.4" d="M35.0123 180.793C37.3236 180.736 39.0409 180.735 41.3522 180.793L41.4407 180.796C43.2245 180.84 44.6922 180.877 45.8752 181.083C46.3128 181.159 46.7255 181.26 47.1154 181.398C47.2189 181.422 47.3184 181.46 47.4111 181.511C48.0208 181.764 48.572 182.118 49.0723 182.619C49.958 183.507 50.3821 184.542 50.597 185.778L47.9387 187.145C47.8074 187.192 47.6425 187.285 47.4189 187.412L42.4129 190.248C40.877 191.119 39.578 191.682 38.182 191.682C36.786 191.682 35.4871 191.119 33.9512 190.248L28.9457 187.412C28.7217 187.285 28.5565 187.192 28.425 187.145L25.7676 185.778C25.9824 184.542 26.4065 183.507 27.2922 182.619C28.1826 181.727 29.2339 181.301 30.4894 181.083C31.6724 180.877 33.14 180.84 34.9238 180.796L35.0123 180.793Z" fill="#F9A876"/>
<g filter="url(#filter5_f_1_622)">
<circle cx="37.4668" cy="193.967" r="6.5" fill="#F9A876"/>
</g>
</g>
</g>
<path d="M85.233 185.5V175.318H91.3778V176.412H86.4659V179.852H91.0597V180.946H86.4659V184.406H91.4574V185.5H85.233ZM93.4411 185.5V177.864H94.5746V179.057H94.674C94.8331 178.649 95.09 178.333 95.4446 178.107C95.7992 177.879 96.2251 177.764 96.7223 177.764C97.2261 177.764 97.6454 177.879 97.9801 178.107C98.3182 178.333 98.5817 178.649 98.7706 179.057H98.8501C99.0457 178.662 99.339 178.349 99.7301 178.117C100.121 177.882 100.59 177.764 101.137 177.764C101.82 177.764 102.378 177.978 102.812 178.406C103.247 178.83 103.464 179.491 103.464 180.389V185.5H102.29V180.389C102.29 179.826 102.136 179.423 101.828 179.181C101.52 178.939 101.157 178.818 100.739 178.818C100.202 178.818 99.7865 178.981 99.4915 179.305C99.1965 179.627 99.049 180.035 99.049 180.528V185.5H97.8558V180.27C97.8558 179.836 97.715 179.486 97.4332 179.221C97.1515 178.952 96.7886 178.818 96.3445 178.818C96.0395 178.818 95.7545 178.899 95.4893 179.062C95.2275 179.224 95.0154 179.45 94.853 179.738C94.6939 180.023 94.6143 180.353 94.6143 180.727V185.5H93.4411ZM107.856 185.679C107.372 185.679 106.933 185.588 106.539 185.406C106.144 185.22 105.831 184.953 105.599 184.605C105.367 184.254 105.251 183.83 105.251 183.332C105.251 182.895 105.337 182.54 105.51 182.268C105.682 181.993 105.912 181.778 106.201 181.622C106.489 181.466 106.807 181.35 107.155 181.274C107.507 181.195 107.859 181.132 108.214 181.085C108.678 181.026 109.054 180.981 109.343 180.951C109.634 180.918 109.846 180.863 109.979 180.787C110.115 180.711 110.183 180.578 110.183 180.389V180.349C110.183 179.859 110.049 179.478 109.78 179.206C109.515 178.934 109.112 178.798 108.572 178.798C108.012 178.798 107.573 178.921 107.255 179.166C106.936 179.411 106.713 179.673 106.583 179.952L105.47 179.554C105.669 179.09 105.934 178.729 106.265 178.47C106.6 178.208 106.965 178.026 107.359 177.923C107.757 177.817 108.148 177.764 108.532 177.764C108.778 177.764 109.059 177.794 109.377 177.854C109.699 177.91 110.009 178.028 110.307 178.207C110.609 178.386 110.859 178.656 111.058 179.017C111.257 179.378 111.356 179.862 111.356 180.469V185.5H110.183V184.466H110.123C110.044 184.632 109.911 184.809 109.725 184.998C109.54 185.187 109.293 185.348 108.985 185.48C108.676 185.613 108.3 185.679 107.856 185.679ZM108.035 184.625C108.499 184.625 108.89 184.534 109.208 184.352C109.53 184.169 109.772 183.934 109.934 183.646C110.1 183.357 110.183 183.054 110.183 182.736V181.662C110.133 181.722 110.024 181.776 109.855 181.826C109.689 181.872 109.497 181.914 109.278 181.95C109.063 181.983 108.852 182.013 108.647 182.04C108.444 182.063 108.28 182.083 108.154 182.099C107.85 182.139 107.565 182.204 107.299 182.293C107.038 182.379 106.825 182.51 106.663 182.686C106.504 182.858 106.424 183.094 106.424 183.392C106.424 183.8 106.575 184.108 106.877 184.317C107.182 184.522 107.568 184.625 108.035 184.625ZM113.498 185.5V177.864H114.671V185.5H113.498ZM114.094 176.591C113.866 176.591 113.668 176.513 113.503 176.357C113.34 176.201 113.259 176.014 113.259 175.795C113.259 175.577 113.34 175.389 113.503 175.234C113.668 175.078 113.866 175 114.094 175C114.323 175 114.519 175.078 114.681 175.234C114.847 175.389 114.93 175.577 114.93 175.795C114.93 176.014 114.847 176.201 114.681 176.357C114.519 176.513 114.323 176.591 114.094 176.591ZM117.993 175.318V185.5H116.82V175.318H117.993ZM126.327 185.679C125.843 185.679 125.404 185.588 125.009 185.406C124.615 185.22 124.302 184.953 124.07 184.605C123.838 184.254 123.722 183.83 123.722 183.332C123.722 182.895 123.808 182.54 123.98 182.268C124.153 181.993 124.383 181.778 124.671 181.622C124.96 181.466 125.278 181.35 125.626 181.274C125.977 181.195 126.33 181.132 126.685 181.085C127.149 181.026 127.525 180.981 127.813 180.951C128.105 180.918 128.317 180.863 128.45 180.787C128.586 180.711 128.654 180.578 128.654 180.389V180.349C128.654 179.859 128.519 179.478 128.251 179.206C127.986 178.934 127.583 178.798 127.043 178.798C126.483 178.798 126.044 178.921 125.725 179.166C125.407 179.411 125.183 179.673 125.054 179.952L123.941 179.554C124.139 179.09 124.405 178.729 124.736 178.47C125.071 178.208 125.435 178.026 125.83 177.923C126.227 177.817 126.619 177.764 127.003 177.764C127.248 177.764 127.53 177.794 127.848 177.854C128.17 177.91 128.48 178.028 128.778 178.207C129.079 178.386 129.33 178.656 129.529 179.017C129.727 179.378 129.827 179.862 129.827 180.469V185.5H128.654V184.466H128.594C128.514 184.632 128.382 184.809 128.196 184.998C128.011 185.187 127.764 185.348 127.455 185.48C127.147 185.613 126.771 185.679 126.327 185.679ZM126.506 184.625C126.97 184.625 127.361 184.534 127.679 184.352C128.001 184.169 128.243 183.934 128.405 183.646C128.571 183.357 128.654 183.054 128.654 182.736V181.662C128.604 181.722 128.494 181.776 128.325 181.826C128.16 181.872 127.968 181.914 127.749 181.95C127.533 181.983 127.323 182.013 127.117 182.04C126.915 182.063 126.751 182.083 126.625 182.099C126.32 182.139 126.035 182.204 125.77 182.293C125.508 182.379 125.296 182.51 125.134 182.686C124.975 182.858 124.895 183.094 124.895 183.392C124.895 183.8 125.046 184.108 125.347 184.317C125.652 184.522 126.039 184.625 126.506 184.625ZM134.852 185.659C134.216 185.659 133.654 185.498 133.167 185.177C132.679 184.852 132.298 184.395 132.023 183.805C131.748 183.211 131.61 182.51 131.61 181.702C131.61 180.9 131.748 180.204 132.023 179.614C132.298 179.024 132.681 178.568 133.172 178.246C133.662 177.925 134.229 177.764 134.872 177.764C135.369 177.764 135.762 177.847 136.05 178.013C136.342 178.175 136.564 178.361 136.716 178.57C136.872 178.775 136.993 178.944 137.079 179.077H137.179V175.318H138.352V185.5H137.218V184.327H137.079C136.993 184.466 136.87 184.642 136.711 184.854C136.552 185.062 136.325 185.25 136.03 185.415C135.735 185.578 135.342 185.659 134.852 185.659ZM135.011 184.605C135.482 184.605 135.879 184.482 136.204 184.237C136.529 183.989 136.776 183.646 136.945 183.208C137.114 182.767 137.199 182.259 137.199 181.682C137.199 181.112 137.116 180.613 136.95 180.185C136.784 179.754 136.539 179.42 136.214 179.181C135.889 178.939 135.488 178.818 135.011 178.818C134.514 178.818 134.1 178.946 133.768 179.201C133.44 179.453 133.193 179.796 133.027 180.23C132.865 180.661 132.784 181.145 132.784 181.682C132.784 182.225 132.867 182.719 133.032 183.163C133.201 183.604 133.45 183.955 133.778 184.217C134.109 184.476 134.52 184.605 135.011 184.605ZM143.547 185.659C142.911 185.659 142.349 185.498 141.862 185.177C141.375 184.852 140.993 184.395 140.718 183.805C140.443 183.211 140.306 182.51 140.306 181.702C140.306 180.9 140.443 180.204 140.718 179.614C140.993 179.024 141.376 178.568 141.867 178.246C142.357 177.925 142.924 177.764 143.567 177.764C144.064 177.764 144.457 177.847 144.745 178.013C145.037 178.175 145.259 178.361 145.412 178.57C145.567 178.775 145.688 178.944 145.775 179.077H145.874V175.318H147.047V185.5H145.914V184.327H145.775C145.688 184.466 145.566 184.642 145.407 184.854C145.248 185.062 145.02 185.25 144.725 185.415C144.431 185.578 144.038 185.659 143.547 185.659ZM143.706 184.605C144.177 184.605 144.575 184.482 144.9 184.237C145.224 183.989 145.471 183.646 145.64 183.208C145.809 182.767 145.894 182.259 145.894 181.682C145.894 181.112 145.811 180.613 145.645 180.185C145.48 179.754 145.234 179.42 144.909 179.181C144.585 178.939 144.184 178.818 143.706 178.818C143.209 178.818 142.795 178.946 142.463 179.201C142.135 179.453 141.888 179.796 141.723 180.23C141.56 180.661 141.479 181.145 141.479 181.682C141.479 182.225 141.562 182.719 141.728 183.163C141.897 183.604 142.145 183.955 142.473 184.217C142.805 184.476 143.216 184.605 143.706 184.605ZM149.359 185.5V177.864H150.493V179.017H150.572C150.711 178.639 150.963 178.333 151.328 178.097C151.692 177.862 152.103 177.744 152.561 177.744C152.647 177.744 152.755 177.746 152.884 177.749C153.013 177.753 153.111 177.758 153.177 177.764V178.957C153.137 178.947 153.046 178.933 152.904 178.913C152.765 178.889 152.617 178.878 152.461 178.878C152.09 178.878 151.759 178.956 151.467 179.112C151.179 179.264 150.95 179.476 150.781 179.748C150.615 180.016 150.532 180.323 150.532 180.668V185.5H149.359ZM157.537 185.659C156.801 185.659 156.167 185.497 155.633 185.172C155.103 184.844 154.694 184.386 154.405 183.8C154.12 183.21 153.978 182.524 153.978 181.741C153.978 180.959 154.12 180.27 154.405 179.673C154.694 179.073 155.095 178.606 155.608 178.271C156.125 177.933 156.729 177.764 157.418 177.764C157.816 177.764 158.208 177.83 158.596 177.963C158.984 178.096 159.337 178.311 159.655 178.609C159.973 178.904 160.227 179.295 160.416 179.783C160.605 180.27 160.699 180.87 160.699 181.582V182.08H154.813V181.065H159.506C159.506 180.634 159.42 180.25 159.248 179.912C159.078 179.574 158.837 179.307 158.522 179.112C158.21 178.916 157.842 178.818 157.418 178.818C156.951 178.818 156.546 178.934 156.205 179.166C155.867 179.395 155.607 179.693 155.424 180.061C155.242 180.429 155.151 180.823 155.151 181.244V181.92C155.151 182.497 155.25 182.986 155.449 183.387C155.651 183.785 155.931 184.088 156.289 184.297C156.647 184.502 157.063 184.605 157.537 184.605C157.846 184.605 158.124 184.562 158.373 184.476C158.624 184.386 158.842 184.254 159.024 184.078C159.206 183.899 159.347 183.677 159.446 183.412L160.58 183.73C160.461 184.115 160.26 184.453 159.978 184.744C159.697 185.033 159.349 185.258 158.934 185.42C158.52 185.58 158.054 185.659 157.537 185.659ZM167.893 179.574L166.839 179.872C166.773 179.696 166.675 179.526 166.546 179.36C166.42 179.191 166.248 179.052 166.029 178.942C165.81 178.833 165.53 178.778 165.189 178.778C164.721 178.778 164.332 178.886 164.02 179.102C163.712 179.314 163.558 179.584 163.558 179.912C163.558 180.204 163.664 180.434 163.876 180.603C164.088 180.772 164.42 180.913 164.87 181.026L166.004 181.304C166.687 181.47 167.195 181.723 167.53 182.065C167.865 182.403 168.032 182.839 168.032 183.372C168.032 183.81 167.906 184.201 167.654 184.545C167.406 184.89 167.058 185.162 166.61 185.361C166.163 185.56 165.643 185.659 165.049 185.659C164.27 185.659 163.626 185.49 163.115 185.152C162.605 184.814 162.282 184.32 162.146 183.67L163.26 183.392C163.366 183.803 163.566 184.111 163.861 184.317C164.159 184.522 164.549 184.625 165.029 184.625C165.576 184.625 166.011 184.509 166.332 184.277C166.657 184.042 166.819 183.76 166.819 183.432C166.819 183.167 166.726 182.945 166.541 182.766C166.355 182.583 166.07 182.447 165.686 182.358L164.413 182.06C163.714 181.894 163.2 181.637 162.872 181.289C162.547 180.938 162.385 180.499 162.385 179.972C162.385 179.541 162.506 179.16 162.748 178.828C162.993 178.497 163.326 178.237 163.747 178.048C164.171 177.859 164.652 177.764 165.189 177.764C165.944 177.764 166.538 177.93 166.968 178.261C167.403 178.593 167.711 179.03 167.893 179.574ZM175.208 179.574L174.154 179.872C174.087 179.696 173.99 179.526 173.86 179.36C173.734 179.191 173.562 179.052 173.343 178.942C173.124 178.833 172.844 178.778 172.503 178.778C172.036 178.778 171.646 178.886 171.335 179.102C171.026 179.314 170.872 179.584 170.872 179.912C170.872 180.204 170.978 180.434 171.191 180.603C171.403 180.772 171.734 180.913 172.185 181.026L173.318 181.304C174.001 181.47 174.51 181.723 174.845 182.065C175.179 182.403 175.347 182.839 175.347 183.372C175.347 183.81 175.221 184.201 174.969 184.545C174.72 184.89 174.372 185.162 173.925 185.361C173.477 185.56 172.957 185.659 172.364 185.659C171.585 185.659 170.94 185.49 170.43 185.152C169.919 184.814 169.596 184.32 169.46 183.67L170.574 183.392C170.68 183.803 170.881 184.111 171.176 184.317C171.474 184.522 171.863 184.625 172.344 184.625C172.891 184.625 173.325 184.509 173.646 184.277C173.971 184.042 174.134 183.76 174.134 183.432C174.134 183.167 174.041 182.945 173.855 182.766C173.67 182.583 173.385 182.447 173 182.358L171.727 182.06C171.028 181.894 170.514 181.637 170.186 181.289C169.861 180.938 169.699 180.499 169.699 179.972C169.699 179.541 169.82 179.16 170.062 178.828C170.307 178.497 170.64 178.237 171.061 178.048C171.485 177.859 171.966 177.764 172.503 177.764C173.259 177.764 173.852 177.93 174.283 178.261C174.717 178.593 175.025 179.03 175.208 179.574Z" fill="#AFB3CA"/>
<path d="M86.8409 203.318V208.5H85.142V199.773H86.7727V201.193H86.8807C87.0814 200.731 87.3958 200.36 87.8239 200.08C88.2557 199.799 88.7992 199.659 89.4545 199.659C90.0492 199.659 90.5701 199.784 91.017 200.034C91.464 200.28 91.8106 200.648 92.0568 201.136C92.303 201.625 92.4261 202.229 92.4261 202.949V208.5H90.7273V203.153C90.7273 202.521 90.5625 202.027 90.233 201.67C89.9034 201.311 89.4508 201.131 88.875 201.131C88.4811 201.131 88.1307 201.216 87.8239 201.386C87.5208 201.557 87.2803 201.807 87.1023 202.136C86.928 202.462 86.8409 202.856 86.8409 203.318ZM94.2045 208.5V199.773H95.9034V208.5H94.2045ZM95.0625 198.426C94.767 198.426 94.5133 198.328 94.3011 198.131C94.0928 197.93 93.9886 197.691 93.9886 197.415C93.9886 197.134 94.0928 196.896 94.3011 196.699C94.5133 196.498 94.767 196.398 95.0625 196.398C95.358 196.398 95.6098 196.498 95.8182 196.699C96.0303 196.896 96.1364 197.134 96.1364 197.415C96.1364 197.691 96.0303 197.93 95.8182 198.131C95.6098 198.328 95.358 198.426 95.0625 198.426ZM97.6889 199.773H99.3878V209.068C99.3878 209.652 99.2817 210.144 99.0696 210.545C98.8613 210.947 98.5507 211.252 98.1378 211.46C97.7287 211.669 97.223 211.773 96.6207 211.773C96.5601 211.773 96.5033 211.773 96.4503 211.773C96.3935 211.773 96.3348 211.771 96.2741 211.767V210.307C96.3272 210.307 96.3745 210.307 96.4162 210.307C96.4541 210.307 96.4976 210.307 96.5469 210.307C96.9484 210.307 97.2382 210.199 97.4162 209.983C97.598 209.771 97.6889 209.462 97.6889 209.057V199.773ZM98.5298 198.426C98.2344 198.426 97.9806 198.328 97.7685 198.131C97.5601 197.93 97.456 197.691 97.456 197.415C97.456 197.134 97.5601 196.896 97.7685 196.699C97.9806 196.498 98.2344 196.398 98.5298 196.398C98.8253 196.398 99.0772 196.498 99.2855 196.699C99.4976 196.896 99.6037 197.134 99.6037 197.415C99.6037 197.691 99.4976 197.93 99.2855 198.131C99.0772 198.328 98.8253 198.426 98.5298 198.426ZM103.713 208.693C103.16 208.693 102.66 208.591 102.213 208.386C101.766 208.178 101.412 207.877 101.151 207.483C100.893 207.089 100.764 206.606 100.764 206.034C100.764 205.542 100.859 205.136 101.048 204.818C101.238 204.5 101.493 204.248 101.815 204.062C102.137 203.877 102.497 203.737 102.895 203.642C103.293 203.547 103.698 203.475 104.111 203.426C104.634 203.366 105.058 203.316 105.384 203.278C105.709 203.237 105.946 203.17 106.094 203.08C106.241 202.989 106.315 202.841 106.315 202.636V202.597C106.315 202.1 106.175 201.716 105.895 201.443C105.618 201.17 105.205 201.034 104.656 201.034C104.084 201.034 103.634 201.161 103.304 201.415C102.978 201.665 102.753 201.943 102.628 202.25L101.031 201.886C101.221 201.356 101.497 200.928 101.861 200.602C102.228 200.273 102.651 200.034 103.128 199.886C103.605 199.735 104.107 199.659 104.634 199.659C104.982 199.659 105.351 199.701 105.741 199.784C106.135 199.864 106.503 200.011 106.844 200.227C107.188 200.443 107.471 200.752 107.69 201.153C107.91 201.551 108.02 202.068 108.02 202.705V208.5H106.361V207.307H106.293C106.183 207.527 106.018 207.742 105.798 207.955C105.579 208.167 105.296 208.343 104.952 208.483C104.607 208.623 104.194 208.693 103.713 208.693ZM104.082 207.33C104.552 207.33 104.954 207.237 105.287 207.051C105.624 206.866 105.88 206.623 106.054 206.324C106.232 206.021 106.321 205.697 106.321 205.352V204.227C106.26 204.288 106.143 204.345 105.969 204.398C105.798 204.447 105.603 204.491 105.384 204.528C105.164 204.562 104.95 204.595 104.741 204.625C104.533 204.652 104.359 204.674 104.219 204.693C103.889 204.735 103.588 204.805 103.315 204.903C103.046 205.002 102.83 205.144 102.668 205.33C102.509 205.511 102.429 205.754 102.429 206.057C102.429 206.477 102.584 206.795 102.895 207.011C103.205 207.223 103.601 207.33 104.082 207.33ZM116.788 211.665C115.614 211.665 114.572 211.504 113.663 211.182C112.758 210.864 111.995 210.394 111.374 209.773C110.752 209.155 110.281 208.398 109.959 207.5C109.637 206.602 109.476 205.578 109.476 204.426C109.476 203.305 109.639 202.297 109.964 201.403C110.29 200.509 110.764 199.748 111.385 199.119C112.01 198.487 112.769 198.004 113.663 197.67C114.557 197.337 115.572 197.17 116.709 197.17C117.796 197.17 118.754 197.341 119.584 197.682C120.413 198.023 121.11 198.491 121.675 199.085C122.243 199.68 122.671 200.362 122.959 201.131C123.247 201.9 123.391 202.712 123.391 203.568C123.391 204.167 123.353 204.752 123.277 205.324C123.201 205.892 123.061 206.407 122.857 206.869C122.656 207.328 122.364 207.695 121.982 207.972C121.603 208.244 121.11 208.386 120.504 208.398C120.182 208.409 119.87 208.371 119.567 208.284C119.264 208.197 119.006 208.057 118.794 207.864C118.582 207.667 118.453 207.417 118.408 207.114H118.339C118.249 207.337 118.097 207.545 117.885 207.739C117.673 207.928 117.402 208.08 117.072 208.193C116.747 208.303 116.368 208.348 115.936 208.33C115.459 208.311 115.029 208.203 114.646 208.006C114.264 207.809 113.936 207.536 113.663 207.188C113.394 206.839 113.188 206.426 113.044 205.949C112.9 205.472 112.828 204.941 112.828 204.358C112.828 203.797 112.91 203.295 113.072 202.852C113.235 202.405 113.457 202.021 113.737 201.699C114.021 201.373 114.347 201.116 114.714 200.926C115.082 200.737 115.47 200.617 115.879 200.568C116.277 200.523 116.643 200.534 116.976 200.602C117.309 200.67 117.586 200.775 117.805 200.915C118.029 201.055 118.169 201.208 118.226 201.375H118.3V200.739H119.697V206.011C119.697 206.311 119.775 206.564 119.93 206.773C120.089 206.981 120.315 207.085 120.607 207.085C120.951 207.085 121.22 206.958 121.413 206.705C121.61 206.451 121.749 206.061 121.828 205.534C121.911 205.008 121.953 204.333 121.953 203.511C121.953 202.936 121.875 202.394 121.72 201.886C121.569 201.375 121.343 200.913 121.044 200.5C120.749 200.083 120.385 199.725 119.953 199.426C119.521 199.127 119.029 198.896 118.476 198.733C117.927 198.57 117.319 198.489 116.652 198.489C115.747 198.489 114.942 198.629 114.237 198.909C113.533 199.186 112.938 199.585 112.453 200.108C111.972 200.631 111.607 201.258 111.357 201.989C111.11 202.716 110.987 203.532 110.987 204.438C110.987 205.381 111.114 206.218 111.368 206.949C111.622 207.676 111.997 208.29 112.493 208.79C112.989 209.29 113.603 209.669 114.334 209.926C115.065 210.188 115.908 210.318 116.862 210.318C117.286 210.318 117.703 210.28 118.112 210.205C118.521 210.133 118.885 210.049 119.203 209.955C119.525 209.864 119.766 209.79 119.925 209.733L120.322 210.977C120.088 211.087 119.775 211.195 119.385 211.301C118.999 211.407 118.578 211.494 118.124 211.562C117.673 211.631 117.228 211.665 116.788 211.665ZM116.266 206.938C116.758 206.938 117.154 206.839 117.453 206.642C117.756 206.445 117.974 206.152 118.107 205.761C118.243 205.367 118.311 204.875 118.311 204.284C118.307 203.708 118.233 203.25 118.089 202.909C117.949 202.564 117.73 202.318 117.43 202.17C117.135 202.019 116.754 201.943 116.288 201.943C115.86 201.943 115.495 202.047 115.192 202.256C114.893 202.464 114.663 202.746 114.504 203.102C114.349 203.458 114.269 203.854 114.266 204.29C114.269 204.748 114.334 205.18 114.459 205.585C114.588 205.987 114.796 206.312 115.084 206.562C115.375 206.812 115.769 206.938 116.266 206.938ZM128.426 211.955C127.733 211.955 127.136 211.864 126.636 211.682C126.14 211.5 125.735 211.259 125.42 210.96C125.106 210.661 124.871 210.333 124.716 209.977L126.176 209.375C126.278 209.542 126.415 209.718 126.585 209.903C126.759 210.093 126.994 210.254 127.29 210.386C127.589 210.519 127.973 210.585 128.443 210.585C129.087 210.585 129.619 210.428 130.04 210.114C130.46 209.803 130.67 209.307 130.67 208.625V206.909H130.562C130.46 207.095 130.313 207.301 130.119 207.528C129.93 207.756 129.669 207.953 129.335 208.119C129.002 208.286 128.568 208.369 128.034 208.369C127.345 208.369 126.723 208.208 126.17 207.886C125.621 207.561 125.186 207.081 124.864 206.449C124.545 205.812 124.386 205.03 124.386 204.102C124.386 203.174 124.544 202.379 124.858 201.716C125.176 201.053 125.612 200.545 126.165 200.193C126.718 199.837 127.345 199.659 128.045 199.659C128.587 199.659 129.025 199.75 129.358 199.932C129.691 200.11 129.951 200.318 130.136 200.557C130.326 200.795 130.472 201.006 130.574 201.188H130.699V199.773H132.364V208.693C132.364 209.443 132.189 210.059 131.841 210.54C131.492 211.021 131.021 211.377 130.426 211.608C129.835 211.839 129.169 211.955 128.426 211.955ZM128.409 206.96C128.898 206.96 129.311 206.847 129.648 206.619C129.989 206.388 130.246 206.059 130.42 205.631C130.598 205.199 130.688 204.682 130.688 204.08C130.688 203.492 130.6 202.975 130.426 202.528C130.252 202.081 129.996 201.733 129.659 201.483C129.322 201.229 128.905 201.102 128.409 201.102C127.898 201.102 127.472 201.235 127.131 201.5C126.79 201.761 126.532 202.117 126.358 202.568C126.188 203.019 126.102 203.523 126.102 204.08C126.102 204.652 126.189 205.153 126.364 205.585C126.538 206.017 126.795 206.354 127.136 206.597C127.481 206.839 127.905 206.96 128.409 206.96ZM134.142 208.5V199.773H135.773V201.193H135.881C136.063 200.712 136.36 200.337 136.773 200.068C137.186 199.795 137.68 199.659 138.256 199.659C138.839 199.659 139.328 199.795 139.722 200.068C140.119 200.341 140.413 200.716 140.602 201.193H140.693C140.902 200.727 141.233 200.356 141.688 200.08C142.142 199.799 142.684 199.659 143.312 199.659C144.104 199.659 144.75 199.907 145.25 200.403C145.754 200.9 146.006 201.648 146.006 202.648V208.5H144.307V202.807C144.307 202.216 144.146 201.788 143.824 201.523C143.502 201.258 143.117 201.125 142.67 201.125C142.117 201.125 141.688 201.295 141.381 201.636C141.074 201.973 140.92 202.407 140.92 202.938V208.5H139.227V202.699C139.227 202.225 139.08 201.845 138.784 201.557C138.489 201.269 138.104 201.125 137.631 201.125C137.309 201.125 137.011 201.21 136.739 201.381C136.47 201.547 136.252 201.78 136.085 202.08C135.922 202.379 135.841 202.725 135.841 203.119V208.5H134.142ZM150.322 208.693C149.769 208.693 149.269 208.591 148.822 208.386C148.375 208.178 148.021 207.877 147.76 207.483C147.502 207.089 147.374 206.606 147.374 206.034C147.374 205.542 147.468 205.136 147.658 204.818C147.847 204.5 148.103 204.248 148.425 204.062C148.747 203.877 149.107 203.737 149.504 203.642C149.902 203.547 150.307 203.475 150.72 203.426C151.243 203.366 151.667 203.316 151.993 203.278C152.319 203.237 152.555 203.17 152.703 203.08C152.851 202.989 152.925 202.841 152.925 202.636V202.597C152.925 202.1 152.785 201.716 152.504 201.443C152.228 201.17 151.815 201.034 151.266 201.034C150.694 201.034 150.243 201.161 149.913 201.415C149.588 201.665 149.362 201.943 149.237 202.25L147.641 201.886C147.83 201.356 148.107 200.928 148.47 200.602C148.838 200.273 149.26 200.034 149.737 199.886C150.214 199.735 150.716 199.659 151.243 199.659C151.591 199.659 151.961 199.701 152.351 199.784C152.745 199.864 153.112 200.011 153.453 200.227C153.798 200.443 154.08 200.752 154.3 201.153C154.519 201.551 154.629 202.068 154.629 202.705V208.5H152.97V207.307H152.902C152.792 207.527 152.627 207.742 152.408 207.955C152.188 208.167 151.906 208.343 151.561 208.483C151.216 208.623 150.804 208.693 150.322 208.693ZM150.692 207.33C151.161 207.33 151.563 207.237 151.896 207.051C152.233 206.866 152.489 206.623 152.663 206.324C152.841 206.021 152.93 205.697 152.93 205.352V204.227C152.87 204.288 152.752 204.345 152.578 204.398C152.408 204.447 152.213 204.491 151.993 204.528C151.773 204.562 151.559 204.595 151.351 204.625C151.143 204.652 150.968 204.674 150.828 204.693C150.499 204.735 150.197 204.805 149.925 204.903C149.656 205.002 149.44 205.144 149.277 205.33C149.118 205.511 149.038 205.754 149.038 206.057C149.038 206.477 149.194 206.795 149.504 207.011C149.815 207.223 150.211 207.33 150.692 207.33ZM156.392 208.5V199.773H158.091V208.5H156.392ZM157.25 198.426C156.955 198.426 156.701 198.328 156.489 198.131C156.28 197.93 156.176 197.691 156.176 197.415C156.176 197.134 156.28 196.896 156.489 196.699C156.701 196.498 156.955 196.398 157.25 196.398C157.545 196.398 157.797 196.498 158.006 196.699C158.218 196.896 158.324 197.134 158.324 197.415C158.324 197.691 158.218 197.93 158.006 198.131C157.797 198.328 157.545 198.426 157.25 198.426ZM161.575 196.864V208.5H159.876V196.864H161.575ZM164.48 208.608C164.17 208.608 163.902 208.498 163.679 208.278C163.455 208.055 163.344 207.786 163.344 207.472C163.344 207.161 163.455 206.896 163.679 206.676C163.902 206.453 164.17 206.341 164.48 206.341C164.791 206.341 165.058 206.453 165.281 206.676C165.505 206.896 165.616 207.161 165.616 207.472C165.616 207.68 165.563 207.871 165.457 208.045C165.355 208.216 165.219 208.352 165.048 208.455C164.878 208.557 164.688 208.608 164.48 208.608ZM171.068 208.676C170.223 208.676 169.496 208.485 168.886 208.102C168.28 207.716 167.814 207.184 167.489 206.506C167.163 205.828 167 205.051 167 204.176C167 203.29 167.167 202.508 167.5 201.83C167.833 201.148 168.303 200.616 168.909 200.233C169.515 199.85 170.229 199.659 171.051 199.659C171.714 199.659 172.305 199.782 172.824 200.028C173.343 200.271 173.761 200.612 174.08 201.051C174.402 201.491 174.593 202.004 174.653 202.591H173C172.909 202.182 172.701 201.83 172.375 201.534C172.053 201.239 171.621 201.091 171.08 201.091C170.606 201.091 170.191 201.216 169.835 201.466C169.483 201.712 169.208 202.064 169.011 202.523C168.814 202.977 168.716 203.515 168.716 204.136C168.716 204.773 168.813 205.322 169.006 205.784C169.199 206.246 169.472 206.604 169.824 206.858C170.18 207.112 170.598 207.239 171.08 207.239C171.402 207.239 171.693 207.18 171.955 207.062C172.22 206.941 172.441 206.769 172.619 206.545C172.801 206.322 172.928 206.053 173 205.739H174.653C174.593 206.303 174.409 206.807 174.102 207.25C173.795 207.693 173.384 208.042 172.869 208.295C172.358 208.549 171.758 208.676 171.068 208.676ZM179.646 208.676C178.828 208.676 178.114 208.489 177.504 208.114C176.894 207.739 176.421 207.214 176.084 206.54C175.747 205.866 175.578 205.078 175.578 204.176C175.578 203.271 175.747 202.479 176.084 201.801C176.421 201.123 176.894 200.597 177.504 200.222C178.114 199.847 178.828 199.659 179.646 199.659C180.464 199.659 181.179 199.847 181.788 200.222C182.398 200.597 182.872 201.123 183.209 201.801C183.546 202.479 183.714 203.271 183.714 204.176C183.714 205.078 183.546 205.866 183.209 206.54C182.872 207.214 182.398 207.739 181.788 208.114C181.179 208.489 180.464 208.676 179.646 208.676ZM179.652 207.25C180.182 207.25 180.622 207.11 180.97 206.83C181.319 206.549 181.576 206.176 181.743 205.71C181.913 205.244 181.999 204.731 181.999 204.17C181.999 203.614 181.913 203.102 181.743 202.636C181.576 202.167 181.319 201.79 180.97 201.506C180.622 201.222 180.182 201.08 179.652 201.08C179.118 201.08 178.675 201.222 178.322 201.506C177.974 201.79 177.714 202.167 177.544 202.636C177.377 203.102 177.294 203.614 177.294 204.17C177.294 204.731 177.377 205.244 177.544 205.71C177.714 206.176 177.974 206.549 178.322 206.83C178.675 207.11 179.118 207.25 179.652 207.25ZM185.111 208.5V199.773H186.741V201.193H186.849C187.031 200.712 187.329 200.337 187.741 200.068C188.154 199.795 188.649 199.659 189.224 199.659C189.808 199.659 190.296 199.795 190.69 200.068C191.088 200.341 191.382 200.716 191.571 201.193H191.662C191.87 200.727 192.202 200.356 192.656 200.08C193.111 199.799 193.652 199.659 194.281 199.659C195.073 199.659 195.719 199.907 196.219 200.403C196.723 200.9 196.974 201.648 196.974 202.648V208.5H195.276V202.807C195.276 202.216 195.115 201.788 194.793 201.523C194.471 201.258 194.086 201.125 193.639 201.125C193.086 201.125 192.656 201.295 192.349 201.636C192.043 201.973 191.889 202.407 191.889 202.938V208.5H190.196V202.699C190.196 202.225 190.048 201.845 189.753 201.557C189.457 201.269 189.073 201.125 188.599 201.125C188.277 201.125 187.98 201.21 187.707 201.381C187.438 201.547 187.221 201.78 187.054 202.08C186.891 202.379 186.81 202.725 186.81 203.119V208.5H185.111Z" fill="#AFB3CA"/>
</g>
<defs>
<filter id="filter0_b_1_622" x="40.3" y="212.8" width="365.4" height="197.4" filterUnits="userSpaceOnUse" color-interpolation-filters="sRGB">
<feFlood flood-opacity="0" result="BackgroundImageFix"/>
<feGaussianBlur in="BackgroundImageFix" stdDeviation="30.85"/>
<feComposite in2="SourceAlpha" operator="in" result="effect1_backgroundBlur_1_622"/>
<feBlend mode="normal" in="SourceGraphic" in2="effect1_backgroundBlur_1_622" result="shape"/>
</filter>
<filter id="filter1_d_1_622" x="113" y="284.5" width="54" height="54" filterUnits="userSpaceOnUse" color-interpolation-filters="sRGB">
<feFlood flood-opacity="0" result="BackgroundImageFix"/>
<feColorMatrix in="SourceAlpha" type="matrix" values="0 0 0 0 0 0 0 0 0 0 0 0 0 0 0 0 0 0 127 0" result="hardAlpha"/>
<feMorphology radius="1" operator="dilate" in="SourceAlpha" result="effect1_dropShadow_1_622"/>
<feOffset/>
<feComposite in2="hardAlpha" operator="out"/>
<feColorMatrix type="matrix" values="0 0 0 0 0.176471 0 0 0 0 0.180392 0 0 0 0 0.282353 0 0 0 1 0"/>
<feBlend mode="normal" in2="BackgroundImageFix" result="effect1_dropShadow_1_622"/>
<feBlend mode="normal" in="SourceGraphic" in2="effect1_dropShadow_1_622" result="shape"/>
</filter>
<filter id="filter2_f_1_622" x="116.367" y="290.867" width="48.2" height="48.2" filterUnits="userSpaceOnUse" color-interpolation-filters="sRGB">
<feFlood flood-opacity="0" result="BackgroundImageFix"/>
<feBlend mode="normal" in="SourceGraphic" in2="BackgroundImageFix" result="shape"/>
<feGaussianBlur stdDeviation="8.8" result="effect1_foregroundBlur_1_622"/>
</filter>
<filter id="filter3_b_1_622" x="-61.7" y="92.8" width="365.4" height="197.4" filterUnits="userSpaceOnUse" color-interpolation-filters="sRGB">
<feFlood flood-opacity="0" result="BackgroundImageFix"/>
<feGaussianBlur in="BackgroundImageFix" stdDeviation="30.85"/>
<feComposite in2="SourceAlpha" operator="in" result="effect1_backgroundBlur_1_622"/>
<feBlend mode="normal" in="SourceGraphic" in2="effect1_backgroundBlur_1_622" result="shape"/>
</filter>
<filter id="filter4_d_1_622" x="11" y="164.5" width="54" height="54" filterUnits="userSpaceOnUse" color-interpolation-filters="sRGB">
<feFlood flood-opacity="0" result="BackgroundImageFix"/>
<feColorMatrix in="SourceAlpha" type="matrix" values="0 0 0 0 0 0 0 0 0 0 0 0 0 0 0 0 0 0 127 0" result="hardAlpha"/>
<feMorphology radius="1" operator="dilate" in="SourceAlpha" result="effect1_dropShadow_1_622"/>
<feOffset/>
<feComposite in2="hardAlpha" operator="out"/>
<feColorMatrix type="matrix" values="0 0 0 0 0.176471 0 0 0 0 0.180392 0 0 0 0 0.282353 0 0 0 1 0"/>
<feBlend mode="normal" in2="BackgroundImageFix" result="effect1_dropShadow_1_622"/>
<feBlend mode="normal" in="SourceGraphic" in2="effect1_dropShadow_1_622" result="shape"/>
</filter>
<filter id="filter5_f_1_622" x="13.3668" y="169.867" width="48.2" height="48.2" filterUnits="userSpaceOnUse" color-interpolation-filters="sRGB">
<feFlood flood-opacity="0" result="BackgroundImageFix"/>
<feBlend mode="normal" in="SourceGraphic" in2="BackgroundImageFix" result="shape"/>
<feGaussianBlur stdDeviation="8.8" result="effect1_foregroundBlur_1_622"/>
</filter>
<linearGradient id="paint0_linear_1_622" x1="223" y1="274.5" x2="238.5" y2="329.5" gradientUnits="userSpaceOnUse">
<stop stop-color="#1B1C36"/>
<stop offset="1" stop-color="#70717A"/>
</linearGradient>
<linearGradient id="paint1_linear_1_622" x1="239" y1="324.5" x2="328.5" y2="278.5" gradientUnits="userSpaceOnUse">
<stop stop-color="#2C2D47"/>
<stop offset="1" stop-color="#444AE2" stop-opacity="0.05"/>
</linearGradient>
<linearGradient id="paint2_linear_1_622" x1="121" y1="154.5" x2="136.5" y2="209.5" gradientUnits="userSpaceOnUse">
<stop stop-color="#1B1C36"/>
<stop offset="1" stop-color="#70717A"/>
</linearGradient>
<linearGradient id="paint3_linear_1_622" x1="137" y1="204.5" x2="226.5" y2="158.5" gradientUnits="userSpaceOnUse">
<stop stop-color="#2C2D47"/>
<stop offset="1" stop-color="#444AE2" stop-opacity="0.05"/>
</linearGradient>
<clipPath id="clip0_1_622">
<rect x="114" y="285.5" width="52" height="52" rx="16" fill="white"/>
</clipPath>
<clipPath id="clip1_1_622">
<rect x="12" y="165.5" width="52" height="52" rx="16" fill="white"/>
</clipPath>
</defs>
</svg>
